<?xml version="1.0" encoding="UTF-8"?>
<svg version="1.1" xmlns="http://www.w3.org/2000/svg" width="627" height="126">
<path d="M0 0 C206.91 0 413.82 0 627 0 C627 41.58 627 83.16 627 126 C420.09 126 213.18 126 0 126 C0 84.42 0 42.84 0 0 Z " fill="#010000" transform="translate(0,0)"/>
<path d="M0 0 C56.76 0 113.52 0 172 0 C172.33 1.65 172.66 3.3 173 5 C172 6 172 6 169.22199917 6.12304783 C167.9692825 6.12212604 166.71656584 6.12120424 165.42588806 6.12025452 C164.73082974 6.12110894 164.03577141 6.12196337 163.31965071 6.12284368 C160.97341014 6.12450049 158.62723992 6.11897387 156.28100586 6.11352539 C154.60600282 6.11324354 152.93099967 6.11340122 151.2559967 6.1139679 C146.69420721 6.11425594 142.13244377 6.10835814 137.57066035 6.10139394 C132.80871 6.09516151 128.0467591 6.09455669 123.2848053 6.09336853 C114.26084434 6.09025489 105.23689544 6.08204106 96.2129398 6.07201904 C85.94225513 6.06085893 75.67156991 6.05534771 65.40088069 6.05032361 C44.26724706 6.03985847 23.13362429 6.02225839 2 6 C1.34 4.02 0.68 2.04 0 0 Z " fill="#240000" transform="translate(233,98)"/>
<path d="M0 0 C2.31 0 4.62 0 7 0 C10 5.75 10 5.75 10 8 C10.66 8 11.32 8 12 8 C12.64910154 9.58199631 13.29414694 11.16565724 13.9375 12.75 C14.29714844 13.63171875 14.65679687 14.5134375 15.02734375 15.421875 C15.85356576 17.61186104 16.49369943 19.71898271 17 22 C20.73628238 18.77211026 22.25241105 15.55659725 24.0625 11 C27.60253574 2.13582562 27.60253574 2.13582562 30 0 C32.31 0 34.62 0 37 0 C37 12.54 37 25.08 37 38 C34.69 38 32.38 38 30 38 C30 30.74 30 23.48 30 16 C29.34 16 28.68 16 28 16 C28 16.66 28 17.32 28 18 C27.34 18 26.68 18 26 18 C26.12375 19.2375 26.12375 19.2375 26.25 20.5 C25.92764011 25.01303847 24.20705349 28.11795056 22 32 C19.69 32 17.38 32 15 32 C14.67 30.02 14.34 28.04 14 26 C13.34 26 12.68 26 12 26 C11.01 22.7 10.02 19.4 9 16 C8.34 16 7.68 16 7 16 C7 23.26 7 30.52 7 38 C4.69 38 2.38 38 0 38 C0 25.46 0 12.92 0 0 Z " fill="#CD1213" transform="translate(330,42)"/>
<path d="M0 0 C0.68578125 -0.02320313 1.3715625 -0.04640625 2.078125 -0.0703125 C5.98038022 -0.02563019 8.55779815 0.75393326 11.453125 3.265625 C14.7236171 6.99984359 14.90211938 10.44133751 14.75 15.25 C14.77320313 15.98347656 14.79640625 16.71695313 14.8203125 17.47265625 C14.7767294 21.53314851 14.16587962 24.13923247 11.4609375 27.23828125 C7.82048774 30.39932576 4.55142357 30.62403638 -0.125 30.4375 C-0.82753906 30.45232422 -1.53007812 30.46714844 -2.25390625 30.48242188 C-4.3203125 30.44921875 -4.3203125 30.44921875 -8 29.75 C-10.3671875 27.26953125 -10.3671875 27.26953125 -12 24.75 C-12.66 24.42 -13.32 24.09 -14 23.75 C-14.16300888 21.03922278 -14.28128285 18.33833449 -14.375 15.625 C-14.42527344 14.86445312 -14.47554687 14.10390625 -14.52734375 13.3203125 C-14.63579564 9.12683955 -14.30439344 6.45867767 -11.4765625 3.2421875 C-7.97590296 0.24590406 -4.49261175 -0.15200566 0 0 Z " fill="#E6E6E6" transform="translate(204,51.25)"/>
<path d="M0 0 C1.27520508 -0.01643555 1.27520508 -0.01643555 2.57617188 -0.03320312 C6.27661005 0.01033144 8.75575111 0.16846165 11.9921875 2.0390625 C14.15712753 5.81893077 14.05851362 9.21473816 14 13.5 C14.02384766 14.29857422 14.04769531 15.09714844 14.07226562 15.91992188 C14.06210074 20.00959503 13.74158946 22.09582805 11.46484375 25.58984375 C7.35445209 28.26822799 4.24423661 28.30454716 -0.5625 28.1875 C-1.75359375 28.21650391 -1.75359375 28.21650391 -2.96875 28.24609375 C-7.05662981 28.21202808 -9.11203383 27.86164678 -12.5859375 25.5546875 C-15.20807643 21.58520446 -15.30815772 18.71988796 -15.1875 14.0625 C-15.20683594 13.31613281 -15.22617187 12.56976563 -15.24609375 11.80078125 C-15.21140434 7.88087798 -14.79629533 5.92330688 -12.62109375 2.56640625 C-8.35846589 -0.22634994 -4.9888856 -0.1405855 0 0 Z " fill="#BB100D" transform="translate(440.5625,52.4375)"/>
<path d="M0 0 C2.89809389 -0.16250994 5.78704851 -0.28107636 8.6875 -0.375 C9.50412109 -0.42527344 10.32074219 -0.47554687 11.16210938 -0.52734375 C15.70174036 -0.63761819 17.42960192 -0.47228082 21.04296875 2.51953125 C23.28383223 6.50477947 23.74994834 9.60184436 23.625 14.0625 C23.65400391 15.10374023 23.65400391 15.10374023 23.68359375 16.16601562 C23.64875078 19.83497998 23.06651603 21.90048887 21.0234375 24.95703125 C16.91968905 27.72997755 13.84568496 27.74299558 9 27.625 C7.80890625 27.65400391 7.80890625 27.65400391 6.59375 27.68359375 C2.53483852 27.64976949 0.43519522 27.27988807 -3.04296875 25.04296875 C-5.75200688 20.83071186 -5.5634022 17.57816295 -5.3125 12.6875 C-5.28994141 11.85154297 -5.26738281 11.01558594 -5.24414062 10.15429688 C-5.1855061 8.10208851 -5.09583215 6.05080798 -5 4 C-3.35 3.34 -1.7 2.68 0 2 C0 1.34 0 0.68 0 0 Z " fill="#BF1715" transform="translate(378,53)"/>
<path d="M0 0 C2.31 0 4.62 0 7 0 C7.02505615 0.57032959 7.0501123 1.14065918 7.07592773 1.72827148 C7.19156549 4.29826157 7.31443624 6.86785527 7.4375 9.4375 C7.47681641 10.33533203 7.51613281 11.23316406 7.55664062 12.15820312 C7.59853516 13.01220703 7.64042969 13.86621094 7.68359375 14.74609375 C7.72025146 15.53685303 7.75690918 16.3276123 7.79467773 17.14233398 C7.80563257 19.01401441 7.80563257 19.01401441 9 20 C12.48618881 19.90691463 12.48618881 19.90691463 16 19 C18.6043882 15.55326842 18.43643825 11.40621514 18.625 7.25 C18.66367188 6.55261719 18.70234375 5.85523438 18.7421875 5.13671875 C18.83598624 3.42489182 18.91906174 1.71248318 19 0 C21.31 0 23.62 0 26 0 C26.12408851 4.73216293 26.21456516 9.46336832 26.2746582 14.19677734 C26.29972128 15.80501818 26.33378171 17.41314602 26.37719727 19.02099609 C26.43821848 21.33980239 26.46628963 23.65709665 26.48828125 25.9765625 C26.51408768 26.68930328 26.5398941 27.40204407 26.56648254 28.13638306 C26.56860827 31.96534746 26.02501831 34.4693402 23.70776367 37.45385742 C20.77471893 40.21183448 19.12182592 40.75259457 15.1171875 40.77148438 C14.41851562 40.74376953 13.71984375 40.71605469 13 40.6875 C11.95199219 40.70973633 11.95199219 40.70973633 10.8828125 40.73242188 C6.93744087 40.66914705 5.13039359 40.10356293 2.01953125 37.6328125 C0 35 0 35 -0.3125 32.1875 C-0.209375 31.465625 -0.10625 30.74375 0 30 C2.64 30 5.28 30 8 30 C8 30.99 8 31.98 8 33 C9.47968324 32.85950482 10.95874516 32.71245174 12.4375 32.5625 C13.26121094 32.48128906 14.08492187 32.40007812 14.93359375 32.31640625 C16.98662025 32.21069185 16.98662025 32.21069185 18 31 C18.04080783 29.00041636 18.04254356 26.99954746 18 25 C17.59394531 25.48339844 17.18789062 25.96679688 16.76953125 26.46484375 C14.61038437 28.33801091 13.51556749 28.489234 10.6875 28.5625 C9.94886719 28.60503906 9.21023437 28.64757812 8.44921875 28.69140625 C4.49091574 27.57399057 2.09103175 25.54473578 0 22 C-0.7135765 18.17562457 -0.56990469 14.49810601 -0.375 10.625 C-0.34792969 9.60277344 -0.32085937 8.58054687 -0.29296875 7.52734375 C-0.22255823 5.01603504 -0.12415134 2.50913041 0 0 Z " fill="#F4F4F4" transform="translate(138,53)"/>
<path d="M0 0 C0.71349609 0.01957764 1.42699219 0.03915527 2.16210938 0.05932617 C5.96790367 0.28291219 9.07768084 0.59552898 12.0625 3.0625 C15.33745348 7.39086208 14.4382309 12.615011 14.0625 17.75 C7.4625 17.75 0.8625 17.75 -5.9375 17.75 C-5.2775 19.07 -4.6175 20.39 -3.9375 21.75 C-1.52070293 22.45176588 -1.52070293 22.45176588 1.1875 22.5 C2.09757812 22.55671875 3.00765625 22.6134375 3.9453125 22.671875 C4.99332031 22.71054688 4.99332031 22.71054688 6.0625 22.75 C6.0625 22.09 6.0625 21.43 6.0625 20.75 C8.7025 20.75 11.3425 20.75 14.0625 20.75 C13.47966036 24.68416754 11.88474977 26.98185086 9.0625 29.75 C6.18791087 30.29623297 4.04788927 30.49785684 1.1875 30.4375 C0.49269531 30.46521484 -0.20210938 30.49292969 -0.91796875 30.52148438 C-4.87730132 30.50284345 -7.37637223 29.86303635 -10.40234375 27.23828125 C-13.66830342 23.49774723 -13.8065645 20.05512551 -13.625 15.25 C-13.64723633 14.14978516 -13.64723633 14.14978516 -13.66992188 13.02734375 C-13.61194949 9.21480702 -13.12046924 6.41331034 -10.890625 3.265625 C-7.27001428 0.18140106 -4.57429095 -0.1835429 0 0 Z " fill="#F0F0F0" transform="translate(267.9375,51.25)"/>
<path d="M0 0 C2.97 0 5.94 0 9 0 C9.23710693 0.72179443 9.47421387 1.44358887 9.71850586 2.18725586 C10.78840239 5.43836757 11.86288718 8.68794431 12.9375 11.9375 C13.31068359 13.07380859 13.68386719 14.21011719 14.06835938 15.38085938 C14.42607422 16.46044922 14.78378906 17.54003906 15.15234375 18.65234375 C15.48226318 19.65257568 15.81218262 20.65280762 16.15209961 21.68334961 C16.79028011 23.9306108 16.79028011 23.9306108 18 25 C20.64 16.75 23.28 8.5 26 0 C28.97 0 31.94 0 35 0 C33.59587245 5.10410348 31.9729297 10.08011986 30.1875 15.0625 C29.79655151 16.15981445 29.79655151 16.15981445 29.39770508 17.27929688 C28.86227359 18.78169194 28.32606083 20.28380879 27.7890625 21.78564453 C27.02991361 23.91605308 26.27912443 26.04920485 25.53125 28.18359375 C25.08336878 29.45574165 24.63545389 30.72787769 24.1875 32 C23.78917969 33.134375 23.39085938 34.26875 22.98046875 35.4375 C22 38 22 38 21 39 C18.66702567 39.04092937 16.33294775 39.04241723 14 39 C12.12385007 34.06276334 10.32379845 29.10447341 8.5625 24.125 C7.06183162 19.89872009 5.51079917 15.71319386 3.8125 11.5625 C2.25765714 7.75407922 1.03807396 3.9792835 0 0 Z " fill="#ECECEC" transform="translate(102,42)"/>
<path d="M0 0 C2.31 0 4.62 0 7 0 C7.33 0.99 7.66 1.98 8 3 C8.39574219 2.51660156 8.79148438 2.03320312 9.19921875 1.53515625 C11.49905997 -0.42544591 12.817165 -0.49348306 15.8125 -0.5625 C17.05966797 -0.62630859 17.05966797 -0.62630859 18.33203125 -0.69140625 C21.68993568 0.17879739 23.47693021 1.40054068 25.82006836 3.9387207 C28.27027462 8.21910379 27.60462295 13.09413248 27.375 17.875 C27.34792969 18.94492188 27.32085937 20.01484375 27.29296875 21.1171875 C27.22253052 23.74688153 27.12409433 26.3723822 27 29 C24.36 29 21.72 29 19 29 C18.97494385 28.39937744 18.9498877 27.79875488 18.92407227 27.17993164 C18.8084472 24.47388563 18.68557064 21.76821717 18.5625 19.0625 C18.52318359 18.11697266 18.48386719 17.17144531 18.44335938 16.19726562 C18.40146484 15.29814453 18.35957031 14.39902344 18.31640625 13.47265625 C18.27974854 12.64000244 18.24309082 11.80734863 18.20532227 10.94946289 C18.20632897 8.99661142 18.20632897 8.99661142 17 8 C14.04195427 7.66659529 14.04195427 7.66659529 11 8 C8.9859044 11.0211434 8.73163404 11.80660017 8.5859375 15.23046875 C8.52792969 16.43413086 8.52792969 16.43413086 8.46875 17.66210938 C8.42234375 18.91217773 8.42234375 18.91217773 8.375 20.1875 C8.31699219 21.4549707 8.31699219 21.4549707 8.2578125 22.74804688 C8.16363721 24.83167524 8.08073325 26.91580753 8 29 C5.36 29 2.72 29 0 29 C0 19.43 0 9.86 0 0 Z " fill="#ECECEC" transform="translate(223,52)"/>
<path d="M0 0 C55.44 0 110.88 0 168 0 C168 0.99 168 1.98 168 3 C112.56 3 57.12 3 0 3 C0 2.01 0 1.02 0 0 Z " fill="#6A2223" transform="translate(237,99)"/>
<path d="M0 0 C0.70318359 -0.03222656 1.40636719 -0.06445312 2.13085938 -0.09765625 C5.02779723 -0.10308631 7.35862055 0.07047981 9.68017578 1.89941406 C11.99554107 4.53366199 13.0625 6.07259463 13.0625 9.625 C10.7525 9.625 8.4425 9.625 6.0625 9.625 C6.0625 8.965 6.0625 8.305 6.0625 7.625 C2.7625 7.625 -0.5375 7.625 -3.9375 7.625 C-4.2675 8.945 -4.5975 10.265 -4.9375 11.625 C-3.61685547 11.68107422 -3.61685547 11.68107422 -2.26953125 11.73828125 C-1.10808594 11.80402344 0.05335938 11.86976562 1.25 11.9375 C2.39855469 11.99550781 3.54710937 12.05351563 4.73046875 12.11328125 C8.2869406 12.6594686 10.28727394 13.34314746 13.0625 15.625 C13.69140625 17.74609375 13.69140625 17.74609375 13.625 20.0625 C13.62693359 21.20525391 13.62693359 21.20525391 13.62890625 22.37109375 C12.8130725 25.61754943 11.82914672 26.71889658 9.0625 28.625 C6.12751638 29.10192085 3.2758223 29.00277177 0.3125 28.875 C-0.87666016 28.84792969 -0.87666016 28.84792969 -2.08984375 28.8203125 C-4.03958348 28.77333082 -5.98869878 28.70159044 -7.9375 28.625 C-7.9375 27.965 -7.9375 27.305 -7.9375 26.625 C-9.2575 26.295 -10.5775 25.965 -11.9375 25.625 C-12.2675 23.975 -12.5975 22.325 -12.9375 20.625 C-10.2975 20.625 -7.6575 20.625 -4.9375 20.625 C-4.6075 21.285 -4.2775 21.945 -3.9375 22.625 C-0.6375 22.625 2.6625 22.625 6.0625 22.625 C6.0625 20.975 6.0625 19.325 6.0625 17.625 C5.18207031 17.65980469 4.30164063 17.69460937 3.39453125 17.73046875 C2.23308594 17.75753906 1.07164062 17.78460938 -0.125 17.8125 C-1.84783203 17.86470703 -1.84783203 17.86470703 -3.60546875 17.91796875 C-7.29363772 17.5936866 -9.1230344 17.02250773 -11.9375 14.625 C-12.56640625 12.28515625 -12.56640625 12.28515625 -12.5 9.6875 C-12.50128906 8.83285156 -12.50257813 7.97820313 -12.50390625 7.09765625 C-10.96725544 0.38938064 -6.05825728 -0.05522568 0 0 Z " fill="#C41111" transform="translate(491.9375,51.375)"/>
<path d="M0 0 C5.19689119 -0.61658031 5.19689119 -0.61658031 8 0 C10.17596146 2.06225326 11.60042821 4.36234546 13 7 C15.33524782 4.74259377 17.18705073 2.7194239 19 0 C21.1640625 -0.29296875 21.1640625 -0.29296875 23.625 -0.1875 C24.44226563 -0.16042969 25.25953125 -0.13335937 26.1015625 -0.10546875 C27.04128906 -0.05326172 27.04128906 -0.05326172 28 0 C28 0.66 28 1.32 28 2 C27.34 2 26.68 2 26 2 C25.773125 2.515625 25.54625 3.03125 25.3125 3.5625 C23.5024447 6.92403127 21.26003596 9.92911144 19 13 C20.98151313 17.30328609 23.76325391 20.93965946 26.5390625 24.7578125 C28 27 28 27 28 29 C24.87228538 29.4906219 22.10352525 29.70581845 19 29 C16.71071431 26.61663407 15.33530634 24.00611679 14 21 C11.74754119 23.68841859 10.11786042 25.64641875 9 29 C5.7 29 2.4 29 -1 29 C0.34929464 25.16336928 2.07751025 22.34827431 4.625 19.1875 C5.57246094 18.00220703 5.57246094 18.00220703 6.5390625 16.79296875 C7.02117187 16.20128906 7.50328125 15.60960938 8 15 C6.14183119 11.04913623 3.72642599 7.60121637 1.2421875 4.0234375 C0 2 0 2 0 0 Z " fill="#F5F5F5" transform="translate(284,52)"/>
<path d="M0 0 C2.64 0 5.28 0 8 0 C8 2.64 8 5.28 8 8 C10.31 8 12.62 8 15 8 C15 10.31 15 12.62 15 15 C12.36 15 9.72 15 7 15 C7.33 19.95 7.66 24.9 8 30 C10.31 30 12.62 30 15 30 C15 31.98 15 33.96 15 36 C13.20841511 36.02696365 11.41671527 36.04637917 9.625 36.0625 C8.62726563 36.07410156 7.62953125 36.08570313 6.6015625 36.09765625 C4 36 4 36 2 35 C2 34.01 2 33.02 2 32 C1.34 32 0.68 32 0 32 C0 26.39 0 20.78 0 15 C-1.65 15 -3.3 15 -5 15 C-5 13.02 -5 11.04 -5 9 C-3.35 9 -1.7 9 0 9 C0 6.03 0 3.06 0 0 Z " fill="#CD1211" transform="translate(408,44)"/>
<path d="M0 0 C0.66 0.33 1.32 0.66 2 1 C2 3.31 2 5.62 2 8 C2.66 8 3.32 8 4 8 C3.67 10.64 3.34 13.28 3 16 C3.763125 15.175 4.52625 14.35 5.3125 13.5 C8 11 8 11 11 11 C11 11.66 11 12.32 11 13 C9.02 13.99 9.02 13.99 7 15 C7 21.6 7 28.2 7 35 C10.58477884 36.79238942 11.57063025 37.25149831 15.2578125 37.23046875 C16.04800781 37.22853516 16.83820313 37.22660156 17.65234375 37.22460938 C18.46832031 37.21236328 19.28429687 37.20011719 20.125 37.1875 C20.94871094 37.18685547 21.77242188 37.18621094 22.62109375 37.18554688 C26.94691579 37.27004578 26.94691579 37.27004578 31 36 C30 39 30 39 28 40 C25.17725463 40.0984342 22.38471903 40.13898292 19.5625 40.125 C18.39750977 40.13080078 18.39750977 40.13080078 17.20898438 40.13671875 C13.88918828 40.13099989 11.17006494 40.05668831 8 39 C7.67 38.34 7.34 37.68 7 37 C5.515 36.505 5.515 36.505 4 36 C3.690625 36.61875 3.38125 37.2375 3.0625 37.875 C2.375 39.25 1.6875 40.625 1 42 C-5.45217391 42.36521739 -5.45217391 42.36521739 -7.6875 40.875 C-9.54393387 38.22295161 -9.515143 36.01834023 -9.6875 32.8125 C-9.75324219 31.72582031 -9.81898438 30.63914062 -9.88671875 29.51953125 C-9.92410156 28.68808594 -9.96148437 27.85664062 -10 27 C-10.515625 27.99 -11.03125 28.98 -11.5625 30 C-12.366875 30.99 -13.17125 31.98 -14 33 C-17.75 33.375 -17.75 33.375 -21 33 C-21 32.67 -21 32.34 -21 32 C-19.02 32 -17.04 32 -15 32 C-14.566875 30.4840625 -14.566875 30.4840625 -14.125 28.9375 C-13.08333333 25.29166667 -12.04166667 21.64583333 -11 18 C-10.34 18 -9.68 18 -9 18 C-9 17.34 -9 16.68 -9 16 C-8.34 16 -7.68 16 -7 16 C-7 23.26 -7 30.52 -7 38 C-4.69 38 -2.38 38 0 38 C0 25.46 0 12.92 0 0 Z " fill="#0E0100" transform="translate(367,42)"/>
<path d="M0 0 C2.64 0 5.28 0 8 0 C8 0.66 8 1.32 8 2 C8.99 1.34 9.98 0.68 11 0 C13.04296875 -0.1953125 13.04296875 -0.1953125 15.1875 -0.125 C17.0746875 -0.063125 17.0746875 -0.063125 19 0 C19 2.64 19 5.28 19 8 C15.97265625 8.24414062 15.97265625 8.24414062 12.9453125 8.48828125 C10.60480784 8.87393036 10.60480784 8.87393036 9 12 C8.6373883 13.92744369 8.6373883 13.92744369 8.5859375 16.01171875 C8.52792969 17.14770508 8.52792969 17.14770508 8.46875 18.30664062 C8.42234375 19.48516602 8.42234375 19.48516602 8.375 20.6875 C8.31699219 21.88342773 8.31699219 21.88342773 8.2578125 23.10351562 C8.16367506 25.06863475 8.08075368 27.0342854 8 29 C5.36 29 2.72 29 0 29 C0 19.43 0 9.86 0 0 Z " fill="#F8F8F8" transform="translate(170,52)"/>
<path d="M0 0 C2.31 0 4.62 0 7 0 C7 0.66 7 1.32 7 2 C7.70125 1.67 8.4025 1.34 9.125 1 C12.28057113 -0.09758996 14.68225608 -0.22620981 18 0 C19 1 19 1 19.0625 4.0625 C19.041875 5.031875 19.02125 6.00125 19 7 C17.906875 7.103125 16.81375 7.20625 15.6875 7.3125 C11.57209384 8.07637768 11.57209384 8.07637768 9 11 C8.51751103 12.90408559 8.51751103 12.90408559 8.5234375 14.9765625 C8.47703125 16.10578125 8.47703125 16.10578125 8.4296875 17.2578125 C8.41164063 18.03898437 8.39359375 18.82015625 8.375 19.625 C8.10472973 27.89527027 8.10472973 27.89527027 7 29 C4.69 29 2.38 29 0 29 C0 19.43 0 9.86 0 0 Z " fill="#D30F13" transform="translate(459,52)"/>
<path d="M0 0 C1.82917969 0.00193359 1.82917969 0.00193359 3.6953125 0.00390625 C6.875 0.4375 6.875 0.4375 8.8046875 1.83984375 C9.875 3.4375 9.875 3.4375 9.875 5.4375 C10.535 5.4375 11.195 5.4375 11.875 5.4375 C11.98354617 7.83456123 12.06253157 10.22665838 12.125 12.625 C12.17527344 13.63530273 12.17527344 13.63530273 12.2265625 14.66601562 C12.29482863 18.16465461 11.94201271 20.31613966 10.2421875 23.39453125 C7.23823686 25.9870497 5.67315619 26.05317045 1.75 25.9375 C0.69554687 25.9271875 -0.35890625 25.916875 -1.4453125 25.90625 C-2.32960938 25.7515625 -3.21390625 25.596875 -4.125 25.4375 C-4.785 24.4475 -5.445 23.4575 -6.125 22.4375 C-5.34253906 22.38851562 -4.56007813 22.33953125 -3.75390625 22.2890625 C-2.74199219 22.21429688 -1.73007812 22.13953125 -0.6875 22.0625 C0.32183594 21.99289063 1.33117187 21.92328125 2.37109375 21.8515625 C3.19738281 21.71492188 4.02367187 21.57828125 4.875 21.4375 C6.23511539 18.71726922 6.0812431 16.4713119 6.125 13.4375 C6.15078125 12.365 6.1765625 11.2925 6.203125 10.1875 C6.09484375 9.28 5.9865625 8.3725 5.875 7.4375 C2.78611478 5.37824319 2.16564073 5.1984626 -1.3125 5.3125 C-2.570625 5.35375 -3.82875 5.395 -5.125 5.4375 C-5.455 6.0975 -5.785 6.7575 -6.125 7.4375 C-6.785 7.4375 -7.445 7.4375 -8.125 7.4375 C-7.795 12.3875 -7.465 17.3375 -7.125 22.4375 C-8.445 22.1075 -9.765 21.7775 -11.125 21.4375 C-12.27286006 17.99391981 -12.40101609 15.12814088 -12.5 11.5 C-12.54898437 10.27410156 -12.59796875 9.04820313 -12.6484375 7.78515625 C-12.125 4.4375 -12.125 4.4375 -10.046875 2.0234375 C-6.46158844 0.07741298 -4.06322694 -0.06470107 0 0 Z " fill="#DD0A0C" transform="translate(387.125,53.5625)"/>
<path d="M0 0 C2.16015626 2.12218476 3.84375203 3.85772392 4.265625 6.94189453 C4.24931908 9.15899046 4.15189472 11.3505332 4 13.5625 C3.54563933 19.23506232 3.54563933 19.23506232 5.44140625 24.49609375 C9.2390646 26.72830514 12.60916306 26.58343782 16.9375 26.5 C17.73607422 26.51546875 18.53464844 26.5309375 19.35742188 26.546875 C23.51353534 26.51932827 25.51297597 26.32261464 29.06640625 23.96875 C29.70449219 23.3190625 30.34257812 22.669375 31 22 C31 23.65 31 25.3 31 27 C25.95086146 29.03089356 21.65607406 29.27509957 16.3125 29.1875 C15.55388672 29.18685547 14.79527344 29.18621094 14.01367188 29.18554688 C10.76100988 29.15970931 8.10473714 29.03491238 5 28 C5 27.01 5 26.02 5 25 C4.01 25 3.02 25 2 25 C1.67 25.99 1.34 26.98 1 28 C-1.52475462 29.26237731 -3.31200466 29.09856404 -6.125 29.0625 C-7.03507812 29.05347656 -7.94515625 29.04445313 -8.8828125 29.03515625 C-9.93082031 29.01775391 -9.93082031 29.01775391 -11 29 C-11 28.34 -11 27.68 -11 27 C-7.37 27 -3.74 27 0 27 C0 25.02 0 23.04 0 21 C-2.31 21 -4.62 21 -7 21 C-8.44207941 18.11584117 -8.09394887 15.58278472 -8.0625 12.375 C-8.05347656 11.18648437 -8.04445313 9.99796875 -8.03515625 8.7734375 C-8.02355469 7.85820313 -8.01195312 6.94296875 -8 6 C-5.36 6 -2.72 6 0 6 C0 4.02 0 2.04 0 0 Z " fill="#200101" transform="translate(423,53)"/>
<path d="M0 0 C1.53799261 -0.1641336 3.08123327 -0.27936843 4.625 -0.375 C5.48351562 -0.44460937 6.34203125 -0.51421875 7.2265625 -0.5859375 C10.7175147 0.15158761 12.43008792 1.31916189 14.82666016 3.93212891 C17.26155937 8.22334746 16.60481231 13.0901899 16.375 17.875 C16.34792969 18.94492188 16.32085937 20.01484375 16.29296875 21.1171875 C16.22253052 23.74688153 16.12409433 26.3723822 16 29 C13.36 29 10.72 29 8 29 C7.97494385 28.41508789 7.9498877 27.83017578 7.92407227 27.22753906 C7.80777038 24.56815529 7.68519933 21.90909597 7.5625 19.25 C7.52318359 18.32960938 7.48386719 17.40921875 7.44335938 16.4609375 C7.40146484 15.57148437 7.35957031 14.68203125 7.31640625 13.765625 C7.27974854 12.94868164 7.24309082 12.13173828 7.20532227 11.29003906 C7.06933997 9.00599097 7.06933997 9.00599097 6.41772461 6.88964844 C6 5 6 5 7 2 C4.69 1.67 2.38 1.34 0 1 C0 0.67 0 0.34 0 0 Z " fill="#E9E9E9" transform="translate(234,52)"/>
<path d="M0 0 C1.32 0 2.64 0 4 0 C4 0.66 4 1.32 4 2 C4.99 2 5.98 2 7 2 C8.89069625 7.67208875 9.24505498 14.49632769 7.22265625 20.1875 C5.59293602 22.35351794 4.57271758 23.0572289 2 24 C-3.38673592 24.47280029 -8.61004717 24.34567393 -14 24 C-14 22.68 -14 21.36 -14 20 C-10.93753253 18.21590198 -8.77920727 17.77119979 -5.25 17.875 C-4.45078125 17.89304687 -3.6515625 17.91109375 -2.828125 17.9296875 C-2.22484375 17.95289062 -1.6215625 17.97609375 -1 18 C0.2062252 14.38132441 0.10816918 11.07493749 0.0625 7.3125 C0.05798828 6.61060547 0.05347656 5.90871094 0.04882812 5.18554688 C0.03706927 3.45699462 0.01913454 1.72848635 0 0 Z " fill="#EAEAEA" transform="translate(210,57)"/>
<path d="M0 0 C-0.66 0 -1.32 0 -2 0 C-3.16903873 3.50711619 -3.16839619 6.36782386 -3.1875 10.0625 C-3.20167969 11.31160156 -3.21585937 12.56070313 -3.23046875 13.84765625 C-3.33812605 17.09765087 -3.33812605 17.09765087 -1 19 C1.43252661 19.46162427 1.43252661 19.46162427 4.125 19.625 C5.03507812 19.69976562 5.94515625 19.77453125 6.8828125 19.8515625 C7.93082031 19.92503906 7.93082031 19.92503906 9 20 C9 19.34 9 18.68 9 18 C9.66 18 10.32 18 11 18 C10.98839844 17.41992188 10.97679687 16.83984375 10.96484375 16.2421875 C10.91237826 11.7001754 11.08248937 7.47286431 12 3 C12.99 2.67 13.98 2.34 15 2 C15 7.28 15 12.56 15 18 C14.34 18 13.68 18 13 18 C12.67 19.65 12.34 21.3 12 23 C6.39 23 0.78 23 -5 23 C-5.33 22.01 -5.66 21.02 -6 20 C-6.99 19.34 -7.98 18.68 -9 18 C-9.35873731 15.25267014 -9.50966544 12.80990266 -9.5 10.0625 C-9.52835937 9.33353516 -9.55671875 8.60457031 -9.5859375 7.85351562 C-9.59375 5.72265625 -9.59375 5.72265625 -9 2 C-5.84528218 -0.67453982 -3.91185116 -1.59371714 0 0 Z " fill="#E40708" transform="translate(437,56)"/>
<path d="M0 0 C7.14893617 -0.56737589 7.14893617 -0.56737589 11 2 C11.328125 4.75 11.328125 4.75 11.25 8 C11.23453125 9.0725 11.2190625 10.145 11.203125 11.25 C11 14 11 14 10 16 C8.37509046 16.02698189 6.75005367 16.04638757 5.125 16.0625 C3.76761719 16.07990234 3.76761719 16.07990234 2.3828125 16.09765625 C0 16 0 16 -2 15 C-2.05406122 13.06280622 -2.09282025 11.12518079 -2.125 9.1875 C-2.14820313 8.10855469 -2.17140625 7.02960938 -2.1953125 5.91796875 C-2 3 -2 3 0 0 Z " fill="#240302" transform="translate(382,58)"/>
<path d="M0 0 C2.97 0 5.94 0 9 0 C9 0.66 9 1.32 9 2 C6.69 2 4.38 2 2 2 C2 4.97 2 7.94 2 11 C0.35 11 -1.3 11 -3 11 C-3 12.98 -3 14.96 -3 17 C-1.35 17 0.3 17 2 17 C2 22.61 2 28.22 2 34 C2.66 34 3.32 34 4 34 C4 34.99 4 35.98 4 37 C4.99 37.495 4.99 37.495 6 38 C5.01 38 4.02 38 3 38 C3 37.34 3 36.68 3 36 C1.515 35.505 1.515 35.505 0 35 C0 29.39 0 23.78 0 18 C-1.32 18 -2.64 18 -4 18 C-4 21.96 -4 25.92 -4 30 C-3.34 30 -2.68 30 -2 30 C-2.75 31.9375 -2.75 31.9375 -4 34 C-6.125 34.75 -6.125 34.75 -8 35 C-7.67 34.34 -7.34 33.68 -7 33 C-6.34 33 -5.68 33 -5 33 C-5.06028001 30.43508544 -5.14737947 27.87578243 -5.25 25.3125 C-5.26417969 24.59126953 -5.27835937 23.87003906 -5.29296875 23.12695312 C-5.45477403 19.58341753 -5.87598694 17.2506647 -7.46875 14.03125 C-11.20708852 11.03134872 -14.58077522 11.22033049 -19.25 11.1875 C-20.09046875 11.16236328 -20.9309375 11.13722656 -21.796875 11.11132812 C-23.86408228 11.05260065 -25.93209111 11.02340226 -28 11 C-26 9 -26 9 -24.12060547 8.77294922 C-23.37697754 8.78342285 -22.63334961 8.79389648 -21.8671875 8.8046875 C-20.65869141 8.81435547 -20.65869141 8.81435547 -19.42578125 8.82421875 C-18.16314453 8.84935547 -18.16314453 8.84935547 -16.875 8.875 C-15.60076172 8.88853516 -15.60076172 8.88853516 -14.30078125 8.90234375 C-12.20040116 8.92594353 -10.10016556 8.96181517 -8 9 C-7.67 9.99 -7.34 10.98 -7 12 C-6.34 12 -5.68 12 -5 12 C-4.01 10.02 -3.02 8.04 -2 6 C-1.34 6 -0.68 6 0 6 C0 4.02 0 2.04 0 0 Z " fill="#480504" transform="translate(406,42)"/>
<path d="M0 0 C0.88429688 -0.02578125 1.76859375 -0.0515625 2.6796875 -0.078125 C5.125 0.25 5.125 0.25 6.84765625 1.42578125 C8.4899108 3.77114172 9.02708281 5.90620016 9.6875 8.6875 C10.51887213 12.13980802 11.40813737 15.13312064 13.125 18.25 C13.785 18.25 14.445 18.25 15.125 18.25 C15.455 17.59 15.785 16.93 16.125 16.25 C16.785 16.25 17.445 16.25 18.125 16.25 C18.785 14.27 19.445 12.29 20.125 10.25 C21.125 13.25 21.125 13.25 20.234375 15.6953125 C19.56148438 17.02175781 19.56148438 17.02175781 18.875 18.375 C18.43671875 19.26445313 17.9984375 20.15390625 17.546875 21.0703125 C16.125 23.25 16.125 23.25 13.125 24.25 C12.28175328 22.671924 11.45076082 21.0872958 10.625 19.5 C10.1609375 18.61828125 9.696875 17.7365625 9.21875 16.828125 C8.125 14.25 8.125 14.25 8.125 10.25 C7.465 10.25 6.805 10.25 6.125 10.25 C5.29492188 7.56445312 5.29492188 7.56445312 4.46484375 4.87890625 C2.7243396 2.38954378 2.7243396 2.38954378 -3.875 2.25 C-3.875 14.79 -3.875 27.33 -3.875 40.25 C-4.205 40.25 -4.535 40.25 -4.875 40.25 C-5.92935078 35.94674111 -6.02028435 31.7632416 -6.0078125 27.359375 C-6.00876923 26.61415588 -6.00972595 25.86893677 -6.01071167 25.10113525 C-6.01138946 23.53454503 -6.00956327 21.96795195 -6.00537109 20.40136719 C-5.99998675 17.99407744 -6.00534509 15.58697171 -6.01171875 13.1796875 C-6.01105849 11.65624959 -6.00977841 10.13281179 -6.0078125 8.609375 C-6.00983673 7.88651306 -6.01186096 7.16365112 -6.01394653 6.41888428 C-5.98640525 0.61304105 -5.76952317 0.10033953 0 0 Z " fill="#3A0100" transform="translate(333.875,39.75)"/>
<path d="M0 0 C0.9075 0.00257812 1.815 0.00515625 2.75 0.0078125 C4.11125 0.00394531 4.11125 0.00394531 5.5 0 C7.75 0.1328125 7.75 0.1328125 8.75 1.1328125 C8.84900199 3.10994057 8.87970773 5.09071288 8.875 7.0703125 C8.87757813 8.15183594 8.88015625 9.23335937 8.8828125 10.34765625 C8.75 13.1328125 8.75 13.1328125 7.75 15.1328125 C4.45 15.1328125 1.15 15.1328125 -2.25 15.1328125 C-3.62252731 12.38775787 -3.38229255 10.12953838 -3.375 7.0703125 C-3.37757813 5.98621094 -3.38015625 4.90210938 -3.3828125 3.78515625 C-3.20274242 0.18905077 -3.20274242 0.18905077 0 0 Z " fill="#090203" transform="translate(437.25,58.8671875)"/>
<path d="M0 0 C0.80308594 0.01417969 1.60617188 0.02835938 2.43359375 0.04296875 C3.64208984 0.05263672 3.64208984 0.05263672 4.875 0.0625 C6.87109375 0.23046875 6.87109375 0.23046875 7.87109375 1.23046875 C7.97002315 3.39527672 8.00080475 5.5634066 7.99609375 7.73046875 C7.99867188 8.91640625 8.00125 10.10234375 8.00390625 11.32421875 C7.87109375 14.23046875 7.87109375 14.23046875 6.87109375 15.23046875 C4.875 15.3984375 4.875 15.3984375 2.43359375 15.41796875 C1.22896484 15.43923828 1.22896484 15.43923828 0 15.4609375 C-2.12890625 15.23046875 -2.12890625 15.23046875 -4.12890625 13.23046875 C-4.39453125 10.69921875 -4.39453125 10.69921875 -4.37890625 7.73046875 C-4.3840625 6.75078125 -4.38921875 5.77109375 -4.39453125 4.76171875 C-4.05521623 1.52824617 -3.31755276 0.35914791 0 0 Z " fill="#030303" transform="translate(202.12890625,58.76953125)"/>
<path d="M0 0 C1.27520508 -0.01643555 1.27520508 -0.01643555 2.57617188 -0.03320312 C6.27661005 0.01033144 8.75575111 0.16846165 11.9921875 2.0390625 C14.15712753 5.81893077 14.05851362 9.21473816 14 13.5 C14.02384766 14.29857422 14.04769531 15.09714844 14.07226562 15.91992188 C14.06210074 20.00959503 13.74158946 22.09582805 11.46484375 25.58984375 C7.35445209 28.26822799 4.24423661 28.30454716 -0.5625 28.1875 C-1.75359375 28.21650391 -1.75359375 28.21650391 -2.96875 28.24609375 C-7.05662981 28.21202808 -9.11203383 27.86164678 -12.5859375 25.5546875 C-15.20807643 21.58520446 -15.30815772 18.71988796 -15.1875 14.0625 C-15.20683594 13.31613281 -15.22617187 12.56976563 -15.24609375 11.80078125 C-15.21140434 7.88087798 -14.79629533 5.92330688 -12.62109375 2.56640625 C-8.35846589 -0.22634994 -4.9888856 -0.1405855 0 0 Z M-11.03515625 3.0859375 C-13.1755109 6.55648699 -13.10950648 9.73820183 -13 13.6875 C-13.00708984 14.41582031 -13.01417969 15.14414063 -13.02148438 15.89453125 C-13.03157267 18.25496105 -13.03157267 18.25496105 -12.5625 21.5625 C-11.0775 22.5525 -11.0775 22.5525 -9.5625 23.5625 C-9.2325 24.5525 -8.9025 25.5425 -8.5625 26.5625 C-2.9525 26.5625 2.6575 26.5625 8.4375 26.5625 C8.7675 24.9125 9.0975 23.2625 9.4375 21.5625 C10.0975 21.5625 10.7575 21.5625 11.4375 21.5625 C11.5456866 18.97804227 11.62487237 16.39812648 11.6875 13.8125 C11.72101563 13.08289063 11.75453125 12.35328125 11.7890625 11.6015625 C11.85024132 8.23672755 11.69065367 5.97746323 9.921875 3.078125 C6.47759826 0.97689957 3.35111099 0.9774215 -0.5625 1.0625 C-1.62984375 1.03929687 -1.62984375 1.03929687 -2.71875 1.015625 C-6.00020519 1.04011347 -8.22536765 1.35478813 -11.03515625 3.0859375 Z " fill="#9F1918" transform="translate(440.5625,52.4375)"/>
<path d="M0 0 C2.97 0.495 2.97 0.495 6 1 C6.12375 1.639375 6.2475 2.27875 6.375 2.9375 C6.684375 3.9584375 6.684375 3.9584375 7 5 C7.66 5.33 8.32 5.66 9 6 C9 7.65 9 9.3 9 11 C7.35 10.67 5.7 10.34 4 10 C3.67 17.59 3.34 25.18 3 33 C2.01 33 1.02 33 0 33 C0 22.11 0 11.22 0 0 Z " fill="#ED0507" transform="translate(332,46)"/>
<path d="M0 0 C0.33 0 0.66 0 1 0 C1.02464775 5.53588533 1.04283496 11.071739 1.05493164 16.60766602 C1.05997244 18.4924373 1.06680498 20.37720465 1.07543945 22.26196289 C1.08751617 24.96501636 1.09323068 27.66801831 1.09765625 30.37109375 C1.10281754 31.21900986 1.10797882 32.06692596 1.11329651 32.9405365 C1.11349195 34.96071068 1.06206211 36.98077934 1 39 C0 40 0 40 -3.4375 40.125 C-7 40 -7 40 -9 39 C-9.4140625 36.27734375 -9.4140625 36.27734375 -9.625 32.9375 C-9.69976562 31.83277344 -9.77453125 30.72804688 -9.8515625 29.58984375 C-9.90054687 28.73519531 -9.94953125 27.88054687 -10 27 C-10.515625 27.99 -11.03125 28.98 -11.5625 30 C-12.366875 30.99 -13.17125 31.98 -14 33 C-17.75 33.375 -17.75 33.375 -21 33 C-21 32.67 -21 32.34 -21 32 C-19.02 32 -17.04 32 -15 32 C-14.566875 30.4840625 -14.566875 30.4840625 -14.125 28.9375 C-13.08333333 25.29166667 -12.04166667 21.64583333 -11 18 C-10.34 18 -9.68 18 -9 18 C-9 17.34 -9 16.68 -9 16 C-8.34 16 -7.68 16 -7 16 C-7 23.26 -7 30.52 -7 38 C-4.69 38 -2.38 38 0 38 C0 25.46 0 12.92 0 0 Z " fill="#450202" transform="translate(367,42)"/>
<path d="M0 0 C2.31 0 4.62 0 7 0 C7 0.66 7 1.32 7 2 C7.70125 1.67 8.4025 1.34 9.125 1 C12.28057113 -0.09758996 14.68225608 -0.22620981 18 0 C19 1 19 1 19.0625 4.0625 C19.041875 5.031875 19.02125 6.00125 19 7 C17.906875 7.103125 16.81375 7.20625 15.6875 7.3125 C11.57209384 8.07637768 11.57209384 8.07637768 9 11 C8.51751103 12.90408559 8.51751103 12.90408559 8.5234375 14.9765625 C8.47703125 16.10578125 8.47703125 16.10578125 8.4296875 17.2578125 C8.41164063 18.03898437 8.39359375 18.82015625 8.375 19.625 C8.10472973 27.89527027 8.10472973 27.89527027 7 29 C4.69 29 2.38 29 0 29 C0 19.43 0 9.86 0 0 Z M2 2 C0.35110234 3.64889766 0.87001619 5.57345384 0.8671875 7.83984375 C0.86589844 8.82017578 0.86460937 9.80050781 0.86328125 10.81054688 C0.86714844 11.84244141 0.87101562 12.87433594 0.875 13.9375 C0.87113281 14.96552734 0.86726563 15.99355469 0.86328125 17.05273438 C0.86457031 18.03435547 0.86585938 19.01597656 0.8671875 20.02734375 C0.86831543 20.93218506 0.86944336 21.83702637 0.87060547 22.76928711 C0.85503424 25.03895859 0.85503424 25.03895859 2 27 C3.32 27 4.64 27 6 27 C6.12117188 25.89140625 6.24234375 24.7828125 6.3671875 23.640625 C6.53606296 22.17703766 6.70535572 20.71349843 6.875 19.25 C6.95363281 18.52039063 7.03226562 17.79078125 7.11328125 17.0390625 C7.9842248 9.66954013 7.9842248 9.66954013 10 7 C13.625 6.25 13.625 6.25 17 6 C17 4.68 17 3.36 17 2 C16.33613281 2.08378906 15.67226563 2.16757812 14.98828125 2.25390625 C10.39645105 2.78347499 6.53033212 3.16911797 2 2 Z " fill="#871717" transform="translate(459,52)"/>
<path d="M0 0 C2.16015626 2.12218476 3.84375203 3.85772392 4.265625 6.94189453 C4.24931908 9.15899046 4.15189472 11.3505332 4 13.5625 C3.54563933 19.23506232 3.54563933 19.23506232 5.44140625 24.49609375 C9.2390646 26.72830514 12.60916306 26.58343782 16.9375 26.5 C17.73607422 26.51546875 18.53464844 26.5309375 19.35742188 26.546875 C23.51353534 26.51932827 25.51297597 26.32261464 29.06640625 23.96875 C29.70449219 23.3190625 30.34257812 22.669375 31 22 C31 23.65 31 25.3 31 27 C25.95086146 29.03089356 21.65607406 29.27509957 16.3125 29.1875 C15.55388672 29.18685547 14.79527344 29.18621094 14.01367188 29.18554688 C10.76100988 29.15970931 8.10473714 29.03491238 5 28 C5 27.01 5 26.02 5 25 C4.01 25 3.02 25 2 25 C1.67 25.99 1.34 26.98 1 28 C-1.52475462 29.26237731 -3.31200466 29.09856404 -6.125 29.0625 C-7.03507812 29.05347656 -7.94515625 29.04445313 -8.8828125 29.03515625 C-9.93082031 29.01775391 -9.93082031 29.01775391 -11 29 C-11 28.34 -11 27.68 -11 27 C-7.37 27 -3.74 27 0 27 C0 25.02 0 23.04 0 21 C0.66 21 1.32 21 2 21 C2 16.05 2 11.1 2 6 C1.34 6 0.68 6 0 6 C0 4.02 0 2.04 0 0 Z " fill="#370303" transform="translate(423,53)"/>
<path d="M0 0 C2.75105422 -0.10812003 5.49785087 -0.18734945 8.25 -0.25 C9.02730469 -0.28351562 9.80460937 -0.31703125 10.60546875 -0.3515625 C16.44038228 -0.45130461 16.44038228 -0.45130461 19.421875 1.953125 C19.94265625 2.62859375 20.4634375 3.3040625 21 4 C21.66 4.33 22.32 4.66 23 5 C22.67 6.98 22.34 8.96 22 11 C21.01 11 20.02 11 19 11 C19.49113281 11.55171875 19.98226563 12.1034375 20.48828125 12.671875 C22.30109424 15.46370069 22.3172951 16.96185741 22.1875 20.25 C22.16042969 21.14203125 22.13335937 22.0340625 22.10546875 22.953125 C22.07066406 23.62859375 22.03585937 24.3040625 22 25 C21.67 25 21.34 25 21 25 C20.97421875 24.37351562 20.9484375 23.74703125 20.921875 23.1015625 C20.86515625 22.28429687 20.8084375 21.46703125 20.75 20.625 C20.70359375 19.81289062 20.6571875 19.00078125 20.609375 18.1640625 C20.20800214 15.89895356 20.20800214 15.89895356 18.375 14.78125 C15.35268153 13.78706629 12.40030545 13.31604276 9.25 12.875 C8.07953125 12.70742188 6.9090625 12.53984375 5.703125 12.3671875 C4.36507813 12.18542969 4.36507813 12.18542969 3 12 C3.33 10.35 3.66 8.7 4 7 C11.75 6.875 11.75 6.875 14 8 C14 8.66 14 9.32 14 10 C16.31 10 18.62 10 21 10 C20.81171228 7.55519921 20.81171228 7.55519921 20 5 C18.03241727 3.63979849 18.03241727 3.63979849 16 3 C16 2.34 16 1.68 16 1 C10.72 1 5.44 1 0 1 C0 0.67 0 0.34 0 0 Z " fill="#470302" transform="translate(484,51)"/>
<path d="M0 0 C0 12.54 0 25.08 0 38 C-2.31 38 -4.62 38 -7 38 C-7 31.07 -7 24.14 -7 17 C-6.67 17 -6.34 17 -6 17 C-6 23.6 -6 30.2 -6 37 C-4.35 37 -2.7 37 -1 37 C-1 25.78 -1 14.56 -1 3 C-2.98 3 -4.96 3 -7 3 C-7.27714844 3.69738281 -7.55429687 4.39476562 -7.83984375 5.11328125 C-9.05920252 8.14730863 -10.30618509 11.16859403 -11.5625 14.1875 C-11.99691406 15.23292969 -12.43132812 16.27835938 -12.87890625 17.35546875 C-13.54319926 18.92245958 -14.23885015 20.4777003 -15 22 C-15.66 22 -16.32 22 -17 22 C-17 22.66 -17 23.32 -17 24 C-17.99 24 -18.98 24 -20 24 C-20 23.34 -20 22.68 -20 22 C-19.40316406 21.443125 -18.80632812 20.88625 -18.19140625 20.3125 C-15.47104377 17.44181446 -14.39398705 14.66646341 -12.9375 11 C-8.54449153 0 -8.54449153 0 0 0 Z " fill="#B71F23" transform="translate(367,42)"/>
<path d="M0 0 C2.64 0 5.28 0 8 0 C8 0.66 8 1.32 8 2 C8.99 1.34 9.98 0.68 11 0 C13.04296875 -0.1953125 13.04296875 -0.1953125 15.1875 -0.125 C17.0746875 -0.063125 17.0746875 -0.063125 19 0 C19 2.64 19 5.28 19 8 C14.545 8.495 14.545 8.495 10 9 C9.34 7.68 8.68 6.36 8 5 C8.66 4.67 9.32 4.34 10 4 C9.01 4 8.02 4 7 4 C7 3.01 7 2.02 7 1 C5.02 1 3.04 1 1 1 C1 9.91 1 18.82 1 28 C3.31 28 5.62 28 8 28 C8 28.33 8 28.66 8 29 C5.36 29 2.72 29 0 29 C0 19.43 0 9.86 0 0 Z " fill="#BABABA" transform="translate(170,52)"/>
<path d="M0 0 C0.66 0 1.32 0 2 0 C3.72264494 3.29549466 5.29445932 6.33118845 6 10 C5.34 10 4.68 10 4 10 C3.67 9.01 3.34 8.02 3 7 C3.55105909 10.9492568 4.38935371 14.34920174 6 18 C7.32 18 8.64 18 10 18 C10.309375 17.05125 10.61875 16.1025 10.9375 15.125 C12 12 12 12 13 10 C13.66 10 14.32 10 15 10 C13.66666667 13.33333333 12.33333333 16.66666667 11 20 C8.69 20 6.38 20 4 20 C3.67 18.02 3.34 16.04 3 14 C2.34 14 1.68 14 1 14 C0.01 10.7 -0.98 7.4 -2 4 C-2.66 4 -3.32 4 -4 4 C-4.33 10.93 -4.66 17.86 -5 25 C-5.33 25 -5.66 25 -6 25 C-6.02894547 21.54168414 -6.04678 18.08339928 -6.0625 14.625 C-6.07087891 13.64015625 -6.07925781 12.6553125 -6.08789062 11.640625 C-6.09111328 10.69960937 -6.09433594 9.75859375 -6.09765625 8.7890625 C-6.10289307 7.91975098 -6.10812988 7.05043945 -6.11352539 6.15478516 C-6 4 -6 4 -5 2 C-3.35 2.33 -1.7 2.66 0 3 C0 2.01 0 1.02 0 0 Z " fill="#D00F0E" transform="translate(341,54)"/>
<path d="M0 0 C2.64 0 5.28 0 8 0 C8 2.64 8 5.28 8 8 C10.31 8 12.62 8 15 8 C15 10.31 15 12.62 15 15 C12.36 15 9.72 15 7 15 C7.33 14.34 7.66 13.68 8 13 C9.32 13 10.64 13 12 13 C12 12.34 12 11.68 12 11 C10.02 11 8.04 11 6 11 C5.67 8.03 5.34 5.06 5 2 C4.01 2 3.02 2 2 2 C2.020625 3.134375 2.04125 4.26875 2.0625 5.4375 C2 9 2 9 1 10 C-0.66617115 10.04063832 -2.33388095 10.042721 -4 10 C-4 11.32 -4 12.64 -4 14 C-2.02 14.495 -2.02 14.495 0 15 C-1.65 15 -3.3 15 -5 15 C-5 13.02 -5 11.04 -5 9 C-3.35 9 -1.7 9 0 9 C0 6.03 0 3.06 0 0 Z " fill="#BB1817" transform="translate(408,44)"/>
<path d="M0 0 C0 1.32 0 2.64 0 4 C0.99 4.33 1.98 4.66 3 5 C2.34 5.66 1.68 6.32 1 7 C0.53837573 9.43252661 0.53837573 9.43252661 0.375 12.125 C0.30023438 13.03507812 0.22546875 13.94515625 0.1484375 14.8828125 C0.09945313 15.58148438 0.05046875 16.28015625 0 17 C-2 13.25 -2 13.25 -2 11 C-3.98 11 -5.96 11 -8 11 C-8.144375 11.804375 -8.28875 12.60875 -8.4375 13.4375 C-9 16 -9 16 -10 17 C-10.23527773 19.34987262 -10.41386417 21.70556039 -10.5625 24.0625 C-10.64628906 25.35285156 -10.73007812 26.64320312 -10.81640625 27.97265625 C-10.87699219 28.97167969 -10.93757813 29.97070312 -11 31 C-11.99 31 -12.98 31 -14 31 C-13.93990608 28.24769852 -13.85287379 25.5007556 -13.75 22.75 C-13.73582031 21.97269531 -13.72164063 21.19539063 -13.70703125 20.39453125 C-13.54686309 16.64659637 -13.41440859 14.57874304 -11.1875 11.46875 C-8.0978541 9.39427347 -5.62979443 9.72078504 -2 10 C-2.33 8.02 -2.66 6.04 -3 4 C-5.97 3.505 -5.97 3.505 -9 3 C-5.73209435 0.82139623 -3.91954654 0 0 0 Z " fill="#220001" transform="translate(480,49)"/>
<path d="M0 0 C0.66 0 1.32 0 2 0 C2.50403768 1.29009643 3.00309926 2.58213789 3.5 3.875 C3.7784375 4.59429687 4.056875 5.31359375 4.34375 6.0546875 C5 8 5 8 5 10 C5.66 10 6.32 10 7 10 C7 11.32 7 12.64 7 14 C6.01 14.495 6.01 14.495 5 15 C4.34444881 17.52733235 4.34444881 17.52733235 4 20 C3.01 20.33 2.02 20.66 1 21 C1 21.66 1 22.32 1 23 C-1.64 23 -4.28 23 -7 23 C-7 22.67 -7 22.34 -7 22 C-4.69 22 -2.38 22 0 22 C0 14.74 0 7.48 0 0 Z " fill="#1F0001" transform="translate(337,58)"/>
<path d="M0 0 C0.99 0 1.98 0 3 0 C3.33 2.97 3.66 5.94 4 9 C5.98 9 7.96 9 10 9 C10 9.66 10 10.32 10 11 C7.69 11.33 5.38 11.66 3 12 C3 14.31 3 16.62 3 19 C2.01 18.34 1.02 17.68 0 17 C0 15.68 0 14.36 0 13 C-2.97 12.505 -2.97 12.505 -6 12 C-6 10.68 -6 9.36 -6 8 C-4.35 7.67 -2.7 7.34 -1 7 C-0.67 4.69 -0.34 2.38 0 0 Z " fill="#E60607" transform="translate(410,46)"/>
<path d="M0 0 C2.97 0 5.94 0 9 0 C9 0.33 9 0.66 9 1 C6.69 1 4.38 1 2 1 C2 10.57 2 20.14 2 30 C4.31 30 6.62 30 9 30 C9 30.33 9 30.66 9 31 C6.03 31 3.06 31 0 31 C-1.2063366 25.77254141 -0.75612577 21.23471686 0 16 C-0.66 16 -1.32 16 -2 16 C-2 18.31 -2 20.62 -2 23 C-2.33 23 -2.66 23 -3 23 C-3 17.72 -3 12.44 -3 7 C-2.67 7 -2.34 7 -2 7 C-2 8.98 -2 10.96 -2 13 C-1.34 13 -0.68 13 0 13 C0 8.71 0 4.42 0 0 Z " fill="#240001" transform="translate(457,51)"/>
<path d="M0 0 C1.65 0 3.3 0 5 0 C5 9.9 5 19.8 5 30 C4.01 30.33 3.02 30.66 2 31 C1.97494385 30.27409668 1.9498877 29.54819336 1.92407227 28.80029297 C1.80758759 25.49170554 1.68509986 22.18336624 1.5625 18.875 C1.52318359 17.73289062 1.48386719 16.59078125 1.44335938 15.4140625 C1.40146484 14.30546875 1.35957031 13.196875 1.31640625 12.0546875 C1.27974854 11.03874512 1.24309082 10.02280273 1.20532227 8.97607422 C0.99535432 5.93266243 0.54938704 2.99914492 0 0 Z " fill="#F00503" transform="translate(360,46)"/>
<path d="M0 0 C3.27360453 -0.22839101 5.74312859 -0.08376242 8.875 0.9375 C11.36534939 3.35460382 11.40224528 4.07767699 11.5625 7.4375 C11.56754511 10.41916289 11.15907216 11.7574254 9.51171875 14.26953125 C5.8198299 16.81308764 2.61855631 16.4383623 -1.75 16.25 C-2.93916016 16.22292969 -2.93916016 16.22292969 -4.15234375 16.1953125 C-6.10208348 16.14833082 -8.05119878 16.07659044 -10 16 C-10 15.34 -10 14.68 -10 14 C-11.32 13.67 -12.64 13.34 -14 13 C-14.33 11.35 -14.66 9.7 -15 8 C-12.36 8 -9.72 8 -7 8 C-7 8.66 -7 9.32 -7 10 C-8.32 10 -9.64 10 -11 10 C-8.56487334 12.54581423 -7.16768273 13.92030102 -3.5390625 14.16796875 C-2.09660156 14.17763672 -2.09660156 14.17763672 -0.625 14.1875 C0.33148438 14.20167969 1.28796875 14.21585938 2.2734375 14.23046875 C5.03010017 13.99745572 6.64947395 13.40920164 9 12 C9 9.36 9 6.72 9 4 C6.03 3.01 3.06 2.02 0 1 C0 0.67 0 0.34 0 0 Z " fill="#B31918" transform="translate(494,64)"/>
<path d="M0 0 C0.99 0 1.98 0 3 0 C3.390625 5.95703125 3.390625 5.95703125 3 8 C0.84350506 10.23692365 -0.54327047 10.93057167 -3.62109375 11.3984375 C-13.29926771 11.31789791 -13.29926771 11.31789791 -17 8 C-17 7.34 -17 6.68 -17 6 C-16.09636719 6.01160156 -15.19273437 6.02320312 -14.26171875 6.03515625 C-12.49248047 6.04869141 -12.49248047 6.04869141 -10.6875 6.0625 C-9.51574219 6.07410156 -8.34398437 6.08570312 -7.13671875 6.09765625 C-3.96940805 6.14899898 -3.96940805 6.14899898 -1 5 C-0.67 3.35 -0.34 1.7 0 0 Z " fill="#D50E0A" transform="translate(500,68)"/>
<path d="M0 0 C2.31 0.66 4.62 1.32 7 2 C5.68 4.97 4.36 7.94 3 11 C-0.3 11 -3.6 11 -7 11 C-5.5140084 6.40693504 -3.14985318 3.56430755 0 0 Z " fill="#DFDFDF" transform="translate(290,70)"/>
<path d="M0 0 C2.89809389 -0.16250994 5.78704851 -0.28107636 8.6875 -0.375 C9.50412109 -0.42527344 10.32074219 -0.47554687 11.16210938 -0.52734375 C15.69390325 -0.63742781 17.43650417 -0.4599966 21.0625 2.5 C23.66078032 6.29718424 23.57456817 9.91580936 23.3125 14.375 C23.28994141 15.11105469 23.26738281 15.84710938 23.24414062 16.60546875 C23.18572927 18.40453842 23.09606337 20.20254753 23 22 C20.57869669 18.36804504 20.78977215 16.61650652 20.875 12.3125 C20.89304687 11.13300781 20.91109375 9.95351563 20.9296875 8.73828125 C20.95289063 7.83464844 20.97609375 6.93101563 21 6 C20.34 6 19.68 6 19 6 C18.67 4.68 18.34 3.36 18 2 C15.41603321 1.91887546 12.83462432 1.85945252 10.25 1.8125 C9.52039063 1.78736328 8.79078125 1.76222656 8.0390625 1.73632812 C3.64049538 1.67634766 1.24936442 1.9951266 -2 5 C-2.66 5 -3.32 5 -4 5 C-4 10.61 -4 16.22 -4 22 C-4.33 22 -4.66 22 -5 22 C-5 16.06 -5 10.12 -5 4 C-3.35 3.34 -1.7 2.68 0 2 C0 1.34 0 0.68 0 0 Z " fill="#A61C1B" transform="translate(378,53)"/>
<path d="M0 0 C0.78117187 0.47566406 0.78117187 0.47566406 1.578125 0.9609375 C4.67408709 2.28920511 7.39404121 2.42364247 10.75 2.625 C12.50570313 2.73714844 12.50570313 2.73714844 14.296875 2.8515625 C15.63492187 2.92503906 15.63492187 2.92503906 17 3 C17 4.65 17 6.3 17 8 C13.78548731 9.60725635 10.56387464 9.05748185 7 9 C6.67 8.01 6.34 7.02 6 6 C3.69 6 1.38 6 -1 6 C-0.34 5.67 0.32 5.34 1 5 C0.67 3.35 0.34 1.7 0 0 Z " fill="#400103" transform="translate(481,66)"/>
<path d="M0 0 C0.70318359 -0.03222656 1.40636719 -0.06445312 2.13085938 -0.09765625 C5.02779723 -0.10308631 7.35862055 0.07047981 9.68017578 1.89941406 C11.99554107 4.53366199 13.0625 6.07259463 13.0625 9.625 C10.7525 9.625 8.4425 9.625 6.0625 9.625 C6.0625 9.295 6.0625 8.965 6.0625 8.625 C7.7125 8.625 9.3625 8.625 11.0625 8.625 C9.56952663 6.01502608 9.56952663 6.01502608 7.0625 3.625 C4.28789454 3.09074086 2.08451654 2.83608048 -0.6875 2.8125 C-1.38488281 2.78736328 -2.08226562 2.76222656 -2.80078125 2.73632812 C-4.51241949 2.67771038 -6.2250186 2.64842947 -7.9375 2.625 C-8.13301338 4.22820974 -8.31861983 5.83262986 -8.5 7.4375 C-8.60441406 8.33082031 -8.70882813 9.22414063 -8.81640625 10.14453125 C-9.09408709 12.75875572 -9.09408709 12.75875572 -7.9375 15.625 C-9.2575 15.295 -10.5775 14.965 -11.9375 14.625 C-12.04617302 13.04320385 -12.12339827 11.45922847 -12.1875 9.875 C-12.23390625 8.99328125 -12.2803125 8.1115625 -12.328125 7.203125 C-11.9375 4.625 -11.9375 4.625 -10.41796875 2.3359375 C-7.02522945 -0.00425119 -3.98248728 -0.03630344 0 0 Z " fill="#9A1715" transform="translate(491.9375,51.375)"/>
<path d="M0 0 C3.24992446 -0.05819424 6.49971435 -0.09366116 9.75 -0.125 C10.67039062 -0.14175781 11.59078125 -0.15851562 12.5390625 -0.17578125 C13.42851562 -0.18222656 14.31796875 -0.18867187 15.234375 -0.1953125 C16.05131836 -0.20578613 16.86826172 -0.21625977 17.70996094 -0.22705078 C20.27178199 0.0269464 21.85340467 0.58631536 24 2 C24.75 4.625 24.75 4.625 25 7 C24.53722656 6.51015625 24.07445312 6.0203125 23.59765625 5.515625 C19.65392606 3.21462152 15.91564188 3.64249772 11.4375 3.75 C10.57447266 3.75515625 9.71144531 3.7603125 8.82226562 3.765625 C5.24253188 3.81012829 2.4227992 3.85906693 -1 5 C-0.67 3.35 -0.34 1.7 0 0 Z " fill="#190000" transform="translate(429,50)"/>
<path d="M0 0 C1.33333333 1.66666667 2.66666667 3.33333333 4 5 C4.7425 5.886875 5.485 6.77375 6.25 7.6875 C8 10 8 10 8 12 C4.94906061 12.28782447 2.04146202 12.43064949 -1 12 C-3.125 9.8125 -3.125 9.8125 -4 7 C-3.6875 4.1875 -3.6875 4.1875 -3 2 C-2.01 2 -1.02 2 0 2 C0 1.34 0 0.68 0 0 Z " fill="#E3E3E3" transform="translate(304,69)"/>
<path d="M0 0 C3.96 0.99 3.96 0.99 8 2 C8 7.61 8 13.22 8 19 C8.66 19 9.32 19 10 19 C10 19.99 10 20.98 10 22 C10.66 22.33 11.32 22.66 12 23 C11.01 23 10.02 23 9 23 C9 22.34 9 21.68 9 21 C8.01 20.67 7.02 20.34 6 20 C6 14.39 6 8.78 6 3 C4.68 3 3.36 3 2 3 C2 6.96 2 10.92 2 15 C2.66 15 3.32 15 4 15 C3.25 16.9375 3.25 16.9375 2 19 C-0.125 19.75 -0.125 19.75 -2 20 C-1.67 19.34 -1.34 18.68 -1 18 C-0.34 18 0.32 18 1 18 C0.67 12.06 0.34 6.12 0 0 Z " fill="#330001" transform="translate(400,57)"/>
<path d="M0 0 C1.32 0.33 2.64 0.66 4 1 C4 12.22 4 23.44 4 35 C2.35 35 0.7 35 -1 35 C-1.33 28.4 -1.66 21.8 -2 15 C-2.66 14.67 -3.32 14.34 -4 14 C-4 13.34 -4 12.68 -4 12 C-2.68 12.33 -1.36 12.66 0 13 C0.33 19.27 0.66 25.54 1 32 C1.66 32 2.32 32 3 32 C3 22.1 3 12.2 3 2 C1.35 2 -0.3 2 -2 2 C-1.34 1.34 -0.68 0.68 0 0 Z " fill="#D70D0F" transform="translate(362,44)"/>
<path d="M0 0 C6.6 0 13.2 0 20 0 C20 0.99 20 1.98 20 3 C17.36 3 14.72 3 12 3 C12 3.66 12 4.32 12 5 C10.37536158 5.05395478 8.75021459 5.09277195 7.125 5.125 C6.22007812 5.14820312 5.31515625 5.17140625 4.3828125 5.1953125 C2 5 2 5 0 3 C0 2.01 0 1.02 0 0 Z " fill="#0E0E0E" transform="translate(262,69)"/>
<path d="M0 0 C0 3 0 3 -1 7 C-5.95 7 -10.9 7 -16 7 C-14 3 -14 3 -11 2 C-8.68946629 1.70346091 -6.37815677 1.49454315 -4.05859375 1.28125 C-1.94048003 1.1044164 -1.94048003 1.1044164 0 0 Z " fill="#FAFAFA" transform="translate(211,73)"/>
<path d="M0 0 C3.2578125 -0.29296875 3.2578125 -0.29296875 7.125 -0.1875 C9.04699219 -0.14689453 9.04699219 -0.14689453 11.0078125 -0.10546875 C11.99523437 -0.07066406 12.98265625 -0.03585938 14 0 C13.67 0.66 13.34 1.32 13 2 C9.37 2 5.74 2 2 2 C2 4.31 2 6.62 2 9 C4.31 9.33 6.62 9.66 9 10 C9 10.33 9 10.66 9 11 C7.54207116 11.05399736 6.08357288 11.09279177 4.625 11.125 C3.81289063 11.14820312 3.00078125 11.17140625 2.1640625 11.1953125 C0 11 0 11 -2 9 C-2.34490322 4.94738713 -2.30163882 3.45245824 0 0 Z " fill="#DF070A" transform="translate(484,55)"/>
<path d="M0 0 C0.33 0 0.66 0 1 0 C1.125 3.375 1.125 3.375 1 7 C-1 9 -1 9 -3.1640625 9.1953125 C-4.38222656 9.16050781 -4.38222656 9.16050781 -5.625 9.125 C-6.44226563 9.10695313 -7.25953125 9.08890625 -8.1015625 9.0703125 C-8.72804687 9.04710938 -9.35453125 9.02390625 -10 9 C-10 8.01 -10 7.02 -10 6 C-10.99 5.67 -11.98 5.34 -13 5 C-12.67 4.34 -12.34 3.68 -12 3 C-11.07767578 3.05220703 -11.07767578 3.05220703 -10.13671875 3.10546875 C-8.92435547 3.14607422 -8.92435547 3.14607422 -7.6875 3.1875 C-6.88699219 3.22230469 -6.08648437 3.25710937 -5.26171875 3.29296875 C-2.50692232 2.93612983 -1.76329108 2.0671197 0 0 Z " fill="#111111" transform="translate(156,77)"/>
<path d="M0 0 C0.33 0 0.66 0 1 0 C1.07347656 1.37285156 1.07347656 1.37285156 1.1484375 2.7734375 C1.22320312 3.96195313 1.29796875 5.15046875 1.375 6.375 C1.44460938 7.55835937 1.51421875 8.74171875 1.5859375 9.9609375 C1.70217346 13.10562319 1.70217346 13.10562319 4 15 C6.20250992 15.46006346 6.20250992 15.46006346 8.625 15.625 C9.85089844 15.73714844 9.85089844 15.73714844 11.1015625 15.8515625 C11.72804688 15.90054688 12.35453125 15.94953125 13 16 C13 16.66 13 17.32 13 18 C14.32 17.67 15.64 17.34 17 17 C17 17.66 17 18.32 17 19 C11.39 19 5.78 19 0 19 C-0.91431569 14.42842156 -0.94773878 11.2675611 -0.5625 6.6875 C-0.46066406 5.43324219 -0.35882813 4.17898437 -0.25390625 2.88671875 C-0.17011719 1.93410156 -0.08632813 0.98148438 0 0 Z " fill="#D80E0E" transform="translate(432,60)"/>
<path d="M0 0 C0.9075 0.00257812 1.815 0.00515625 2.75 0.0078125 C4.11125 0.00394531 4.11125 0.00394531 5.5 0 C7.75 0.1328125 7.75 0.1328125 8.75 1.1328125 C8.84900199 3.10994057 8.87970773 5.09071288 8.875 7.0703125 C8.87757813 8.15183594 8.88015625 9.23335937 8.8828125 10.34765625 C8.75 13.1328125 8.75 13.1328125 7.75 15.1328125 C4.45 15.1328125 1.15 15.1328125 -2.25 15.1328125 C-3.62252731 12.38775787 -3.38229255 10.12953838 -3.375 7.0703125 C-3.37757813 5.98621094 -3.38015625 4.90210938 -3.3828125 3.78515625 C-3.20274242 0.18905077 -3.20274242 0.18905077 0 0 Z M-2.25 1.1328125 C-2.33131463 2.56937104 -2.38933559 4.0072608 -2.4375 5.4453125 C-2.47230469 6.24582031 -2.50710938 7.04632813 -2.54296875 7.87109375 C-2.42957763 10.20124045 -2.42957763 10.20124045 -0.8984375 11.9375 C0.75821386 13.40895919 0.75821386 13.40895919 3.3125 12.9453125 C5.89441272 12.28654217 5.89441272 12.28654217 7.75 10.1328125 C8.07752234 7.41826294 7.8808425 4.88050491 7.75 2.1328125 C6.74163938 0.90013902 6.74163938 0.90013902 4.68359375 1.03515625 C3.44802734 1.05255859 3.44802734 1.05255859 2.1875 1.0703125 C0.94806641 1.08384766 0.94806641 1.08384766 -0.31640625 1.09765625 C-1.27353516 1.11505859 -1.27353516 1.11505859 -2.25 1.1328125 Z " fill="#330000" transform="translate(437.25,58.8671875)"/>
<path d="M0 0 C5.28497409 -0.52849741 5.28497409 -0.52849741 8 0 C10.5 3 10.5 3 12 6 C10.68 6 9.36 6 8 6 C7.67 7.65 7.34 9.3 7 11 C5.66104368 9.33784732 4.32869858 7.67036393 3 6 C2.4225 5.278125 1.845 4.55625 1.25 3.8125 C0 2 0 2 0 0 Z " fill="#E2E2E2" transform="translate(284,52)"/>
<path d="M0 0 C1.32 0.66 2.64 1.32 4 2 C3.5359375 3.85625 3.5359375 3.85625 3.0625 5.75 C1.78031188 11.45164503 1.37429453 17.17873504 1 23 C0.34 23 -0.32 23 -1 23 C-1.02887512 19.35418313 -1.04675585 15.70839537 -1.0625 12.0625 C-1.07087891 11.02158203 -1.07925781 9.98066406 -1.08789062 8.90820312 C-1.09272461 7.42416992 -1.09272461 7.42416992 -1.09765625 5.91015625 C-1.10289307 4.99371338 -1.10812988 4.07727051 -1.11352539 3.13305664 C-1 1 -1 1 0 0 Z " fill="#E80703" transform="translate(463,56)"/>
<path d="M0 0 C0.33 0 0.66 0 1 0 C1.33 4.95 1.66 9.9 2 15 C4.31 15 6.62 15 9 15 C9 16.98 9 18.96 9 21 C7.20841511 21.02696365 5.41671527 21.04637917 3.625 21.0625 C2.62726563 21.07410156 1.62953125 21.08570312 0.6015625 21.09765625 C-2 21 -2 21 -4 20 C-4 19.01 -4 18.02 -4 17 C-3.484375 17.309375 -2.96875 17.61875 -2.4375 17.9375 C0.66665423 19.29059287 3.65115007 19.61359424 7 20 C7 19.01 7 18.02 7 17 C4.69 16.67 2.38 16.34 0 16 C0 10.72 0 5.44 0 0 Z " fill="#B11A18" transform="translate(414,59)"/>
<path d="M0 0 C3 0.125 3 0.125 4 1.125 C4.04080783 3.12458364 4.04254356 5.12545254 4 7.125 C2.9275 7.228125 1.855 7.33125 0.75 7.4375 C-2.85820872 8.09900493 -4.36395023 8.69983421 -7 11.125 C-6.125 7.25 -6.125 7.25 -5 6.125 C-2.66702567 6.08407063 -0.33294775 6.08258277 2 6.125 C2 4.805 2 3.485 2 2.125 C1.34773438 2.28097656 0.69546875 2.43695313 0.0234375 2.59765625 C-4.97062904 3.70990411 -8.93834187 4.4570153 -14 3.125 C-14 2.465 -14 1.805 -14 1.125 C-13.28972656 1.13660156 -12.57945312 1.14820313 -11.84765625 1.16015625 C-10.92855469 1.16917969 -10.00945312 1.17820313 -9.0625 1.1875 C-7.68771484 1.20490234 -7.68771484 1.20490234 -6.28515625 1.22265625 C-3.31806334 1.09585741 -3.21318709 0.1338828 0 0 Z " fill="#961918" transform="translate(474,51.875)"/>
<path d="M0 0 C3.125 -0.1875 3.125 -0.1875 6 0 C5.67 0.66 5.34 1.32 5 2 C3.68 2 2.36 2 1 2 C0.72285156 2.69738281 0.44570313 3.39476562 0.16015625 4.11328125 C-1.05920252 7.14730863 -2.30618509 10.16859403 -3.5625 13.1875 C-3.99691406 14.23292969 -4.43132812 15.27835938 -4.87890625 16.35546875 C-5.54319926 17.92245958 -6.23885015 19.4777003 -7 21 C-7.66 21 -8.32 21 -9 21 C-9 21.66 -9 22.32 -9 23 C-9.99 23 -10.98 23 -12 23 C-12 22.34 -12 21.68 -12 21 C-11.40445312 20.44441406 -10.80890625 19.88882813 -10.1953125 19.31640625 C-7.52585809 16.49970435 -6.26985353 13.49105541 -4.875 9.9375 C-3.46011602 6.4220575 -2.11627021 3.17440531 0 0 Z " fill="#AA120C" transform="translate(359,43)"/>
<path d="M0 0 C2.64 0 5.28 0 8 0 C7.45773019 3.79588866 5.79872437 5.47211993 3 8 C2.34 7.01 1.68 6.02 1 5 C0.01 5 -0.98 5 -2 5 C-2 4.67 -2 4.34 -2 4 C-4.64 3.67 -7.28 3.34 -10 3 C-10 2.67 -10 2.34 -10 2 C-6.7 2 -3.4 2 0 2 C0 1.34 0 0.68 0 0 Z " fill="#E8E8E8" transform="translate(274,72)"/>
<path d="M0 0 C0 0.66 0 1.32 0 2 C-1.98 2.99 -1.98 2.99 -4 4 C-4.33 9.94 -4.66 15.88 -5 22 C-5.66 22 -6.32 22 -7 22 C-7.30389967 19.27092082 -7.5687825 16.54705508 -7.8125 13.8125 C-7.90208984 13.04357422 -7.99167969 12.27464844 -8.08398438 11.48242188 C-8.43949887 7.12269154 -8.43410653 5.57561494 -5.69921875 1.94921875 C-3 0 -3 0 0 0 Z " fill="#340100" transform="translate(378,53)"/>
<path d="M0 0 C0.66 0 1.32 0 2 0 C3.71767682 3.98188718 5.41037341 7.96479403 7 12 C8.32 12 9.64 12 11 12 C11.309375 11.05125 11.61875 10.1025 11.9375 9.125 C13 6 13 6 14 4 C14.66 4 15.32 4 16 4 C14.66666667 7.33333333 13.33333333 10.66666667 12 14 C9.69 14 7.38 14 5 14 C4.67 12.02 4.34 10.04 4 8 C3.34 8 2.68 8 2 8 C1.34 5.36 0.68 2.72 0 0 Z " fill="#A41C18" transform="translate(340,60)"/>
<path d="M0 0 C0.99 0 1.98 0 3 0 C3 0.66 3 1.32 3 2 C8.61 2 14.22 2 20 2 C19.67 2.66 19.34 3.32 19 4 C12.4 4 5.8 4 -1 4 C-0.67 2.68 -0.34 1.36 0 0 Z " fill="#3A0509" transform="translate(481,78)"/>
<path d="M0 0 C1.485 0.99 1.485 0.99 3 2 C4.99554753 2.28983692 4.99554753 2.28983692 7.16015625 2.23046875 C8.3502832 2.22756836 8.3502832 2.22756836 9.56445312 2.22460938 C10.80098633 2.20624023 10.80098633 2.20624023 12.0625 2.1875 C13.30483398 2.1865332 13.30483398 2.1865332 14.57226562 2.18554688 C18.93499987 2.28394082 18.93499987 2.28394082 23 1 C22 4 22 4 20 5 C17.17725463 5.0984342 14.38471903 5.13898292 11.5625 5.125 C10.78583984 5.12886719 10.00917969 5.13273437 9.20898438 5.13671875 C5.88918828 5.13099989 3.17006494 5.05668831 0 4 C0 2.68 0 1.36 0 0 Z " fill="#3C0506" transform="translate(375,77)"/>
<path d="M0 0 C0.99 0 1.98 0 3 0 C3 4.29 3 8.58 3 13 C1.68 13.33 0.36 13.66 -1 14 C-0.67 9.38 -0.34 4.76 0 0 Z " fill="#DF0A08" transform="translate(396,59)"/>
<path d="M0 0 C2.61109045 3.82959933 1.86230768 6.8261539 1.125 11.25 C0.81949219 13.14492187 0.81949219 13.14492187 0.5078125 15.078125 C0.34023438 16.04234375 0.17265625 17.0065625 0 18 C1.32 17.67 2.64 17.34 4 17 C3.34 18.32 2.68 19.64 2 21 C1.67 20.34 1.34 19.68 1 19 C0.01 19.33 -0.98 19.66 -2 20 C-1.96519531 19.02417969 -1.93039062 18.04835938 -1.89453125 17.04296875 C-1.86746094 15.77066406 -1.84039062 14.49835938 -1.8125 13.1875 C-1.77769531 11.92292969 -1.74289062 10.65835938 -1.70703125 9.35546875 C-1.69172579 6.03403555 -1.69172579 6.03403555 -3.51171875 4.05078125 C-4.00285156 3.70402344 -4.49398438 3.35726562 -5 3 C-3.68 3 -2.36 3 -1 3 C-0.67 2.01 -0.34 1.02 0 0 Z " fill="#CF100F" transform="translate(395,55)"/>
<path d="M0 0 C0.33 0 0.66 0 1 0 C1 2.31 1 4.62 1 7 C1.66 7 2.32 7 3 7 C2.76228882 7.80195801 2.76228882 7.80195801 2.51977539 8.62011719 C1.89799663 11.46704032 1.7835446 14.16527157 1.68359375 17.078125 C1.64169922 18.23828125 1.59980469 19.3984375 1.55664062 20.59375 C1.51732422 21.8003125 1.47800781 23.006875 1.4375 24.25 C1.39431641 25.47203125 1.35113281 26.6940625 1.30664062 27.953125 C1.20062645 30.9686392 1.09856064 33.98423448 1 37 C0.67 37 0.34 37 0 37 C0 24.79 0 12.58 0 0 Z " fill="#1E0000" transform="translate(368,43)"/>
<path d="M0 0 C2.97 0 5.94 0 9 0 C9.33 1.32 9.66 2.64 10 4 C6.04 4 2.08 4 -2 4 C-1.34 2.68 -0.68 1.36 0 0 Z " fill="#030303" transform="translate(264,59)"/>
<path d="M0 0 C4.875 3.75 4.875 3.75 6 6 C6.07181821 8.71760108 6.09299506 11.40859388 6.0625 14.125 C6.05798828 14.87910156 6.05347656 15.63320312 6.04882812 16.41015625 C6.03703499 18.27347127 6.01909942 20.13674555 6 22 C3.57869669 18.36804504 3.78977215 16.61650652 3.875 12.3125 C3.90207031 10.54326172 3.90207031 10.54326172 3.9296875 8.73828125 C3.96449219 7.38283203 3.96449219 7.38283203 4 6 C3.34 6 2.68 6 2 6 C1.34 4.02 0.68 2.04 0 0 Z " fill="#911410" transform="translate(395,53)"/>
<path d="M0 0 C0.99 0 1.98 0 3 0 C3.34707158 5.29284165 3.34707158 5.29284165 3 8 C1.1875 10 1.1875 10 -1 11 C-1.99 11 -2.98 11 -4 11 C-4 10.01 -4 9.02 -4 8 C-3.34 8 -2.68 8 -2 8 C-1.34 5.36 -0.68 2.72 0 0 Z " fill="#E1080E" transform="translate(500,68)"/>
<path d="M0 0 C6.27 0 12.54 0 19 0 C19 0.66 19 1.32 19 2 C17.19402344 2.09087891 17.19402344 2.09087891 15.3515625 2.18359375 C13.77602923 2.26799732 12.20050904 2.35264541 10.625 2.4375 C9.8309375 2.47681641 9.036875 2.51613281 8.21875 2.55664062 C3.97398779 2.68893404 3.97398779 2.68893404 0 4 C0 2.68 0 1.36 0 0 Z " fill="#4B0504" transform="translate(429,51)"/>
<path d="M0 0 C0.99 0.33 1.98 0.66 3 1 C3 2.32 3 3.64 3 5 C5.31 5.33 7.62 5.66 10 6 C10 6.99 10 7.98 10 9 C6.6875 9.25 6.6875 9.25 3 9 C1.0625 7.3125 1.0625 7.3125 0 5 C-0.1875 2.25 -0.1875 2.25 0 0 Z " fill="#D80D0C" transform="translate(411,70)"/>
<path d="M0 0 C0.33 0.99 0.66 1.98 1 3 C-0.375 5.65625 -0.375 5.65625 -3 8 C-6.01759944 8.69266255 -8.918373 8.60829999 -12 8.5 C-13.21042969 8.50386719 -13.21042969 8.50386719 -14.4453125 8.5078125 C-18.83647269 8.43535111 -21.76613433 8.3041671 -25 5 C-24.67 4.34 -24.34 3.68 -24 3 C-23.33613281 3.48082031 -22.67226563 3.96164063 -21.98828125 4.45703125 C-18.37623828 6.32207305 -15.16654186 6.55423066 -11.1875 6.6875 C-10.14819336 6.73874023 -10.14819336 6.73874023 -9.08789062 6.79101562 C-7.39247151 6.87286344 -5.69626542 6.93812365 -4 7 C-3.71125 6.401875 -3.4225 5.80375 -3.125 5.1875 C-2 3 -2 3 0 0 Z " fill="#AA1C19" transform="translate(399,72)"/>
<path d="M0 0 C0.66 0 1.32 0 2 0 C2.66 1.98 3.32 3.96 4 6 C3.01 5.67 2.02 5.34 1 5 C1 10.94 1 16.88 1 23 C-1.64 23 -4.28 23 -7 23 C-7 22.67 -7 22.34 -7 22 C-4.69 22 -2.38 22 0 22 C0 14.74 0 7.48 0 0 Z " fill="#6C0809" transform="translate(337,58)"/>
<path d="M0 0 C0.33 0 0.66 0 1 0 C1 2.64 1 5.28 1 8 C3.31 8 5.62 8 8 8 C8 10.31 8 12.62 8 15 C5.36 15 2.72 15 0 15 C0 14.67 0 14.34 0 14 C1.98 14 3.96 14 6 14 C6 12.68 6 11.36 6 10 C5.195625 10.020625 4.39125 10.04125 3.5625 10.0625 C1 10 1 10 0 9 C-0.07179964 7.48071962 -0.08392007 5.95832518 -0.0625 4.4375 C-0.05347656 3.61121094 -0.04445313 2.78492188 -0.03515625 1.93359375 C-0.02355469 1.29550781 -0.01195312 0.65742187 0 0 Z " fill="#811312" transform="translate(415,44)"/>
<path d="M0 0 C2.75105422 -0.10812003 5.49785087 -0.18734945 8.25 -0.25 C9.02730469 -0.28351562 9.80460937 -0.31703125 10.60546875 -0.3515625 C16.44038228 -0.45130461 16.44038228 -0.45130461 19.421875 1.953125 C19.94265625 2.62859375 20.4634375 3.3040625 21 4 C21.66 4.33 22.32 4.66 23 5 C22.67 6.98 22.34 8.96 22 11 C21.34 10.67 20.68 10.34 20 10 C20 8.35 20 6.7 20 5 C18.68 4.34 17.36 3.68 16 3 C16 2.34 16 1.68 16 1 C10.72 1 5.44 1 0 1 C0 0.67 0 0.34 0 0 Z " fill="#260000" transform="translate(484,51)"/>
<path d="M0 0 C-0.33 0.66 -0.66 1.32 -1 2 C-5.71525485 2.79919574 -10.21154243 3.11971144 -15 3 C-15 2.34 -15 1.68 -15 1 C-15.66 0.67 -16.32 0.34 -17 0 C-14.54203147 -0.19436491 -12.08390706 -0.3807742 -9.625 -0.5625 C-8.92632812 -0.61857422 -8.22765625 -0.67464844 -7.5078125 -0.73242188 C-2.2265625 -1.11328125 -2.2265625 -1.11328125 0 0 Z " fill="#120000" transform="translate(397,82)"/>
<path d="M0 0 C0.66 0 1.32 0 2 0 C2 7.26 2 14.52 2 22 C1.67 22 1.34 22 1 22 C1 16.72 1 11.44 1 6 C0.01 6 -0.98 6 -2 6 C-2 4.68 -2 3.36 -2 2 C-1.34 2 -0.68 2 0 2 C0 1.34 0 0.68 0 0 Z " fill="#6A0404" transform="translate(358,58)"/>
<path d="M0 0 C2.97 0 5.94 0 9 0 C9 0.66 9 1.32 9 2 C6.69 2.33 4.38 2.66 2 3 C1.67 5.31 1.34 7.62 1 10 C-0.32 9.67 -1.64 9.34 -3 9 C-2.67 8.01 -2.34 7.02 -2 6 C-1.34 6 -0.68 6 0 6 C0 4.02 0 2.04 0 0 Z " fill="#2D0202" transform="translate(406,42)"/>
<path d="M0 0 C1.98 0 3.96 0 6 0 C6 1.65 6 3.3 6 5 C2.78548731 6.60725635 -0.43612536 6.05748185 -4 6 C-4.33 5.34 -4.66 4.68 -5 4 C-2.03 4 0.94 4 4 4 C4 3.34 4 2.68 4 2 C2.68 2 1.36 2 0 2 C0 1.34 0 0.68 0 0 Z " fill="#5D0301" transform="translate(492,69)"/>
<path d="M0 0 C1.32 0 2.64 0 4 0 C4.390625 5.859375 4.390625 5.859375 4 8 C2.68 9.32 1.36 10.64 0 12 C0 8.04 0 4.08 0 0 Z " fill="#0E0003" transform="translate(402,60)"/>
<path d="M0 0 C1.4539304 0.03304387 2.90746075 0.09241162 4.359375 0.17578125 C5.10445313 0.19833984 5.84953125 0.22089844 6.6171875 0.24414062 C8.448784 0.30284564 10.27934153 0.39252368 12.109375 0.48828125 C12.109375 0.81828125 12.109375 1.14828125 12.109375 1.48828125 C10.62824219 1.52695312 10.62824219 1.52695312 9.1171875 1.56640625 C7.83585937 1.623125 6.55453125 1.67984375 5.234375 1.73828125 C3.95820313 1.7846875 2.68203125 1.83109375 1.3671875 1.87890625 C-1.98250605 2.11383181 -1.98250605 2.11383181 -3.3359375 4.53515625 C-3.51898438 5.1796875 -3.70203125 5.82421875 -3.890625 6.48828125 C-4.550625 6.48828125 -5.210625 6.48828125 -5.890625 6.48828125 C-6.220625 7.14828125 -6.550625 7.80828125 -6.890625 8.48828125 C-7.880625 8.98328125 -7.880625 8.98328125 -8.890625 9.48828125 C-8.06485355 3.91432396 -5.67243495 0.71190198 0 0 Z " fill="#C1C1C1" transform="translate(263.890625,51.51171875)"/>
<path d="M0 0 C0.99 0.495 0.99 0.495 2 1 C2 1.99 2 2.98 2 4 C2.66 4 3.32 4 4 4 C4.33 5.32 4.66 6.64 5 8 C5.66 8 6.32 8 7 8 C7 8.99 7 9.98 7 11 C5.68 11 4.36 11 3 11 C0.84694043 7.14243493 -0.39253254 4.44870215 0 0 Z " fill="#EC0408" transform="translate(343,60)"/>
<path d="M0 0 C0.66 0 1.32 0 2 0 C1.67 3.3 1.34 6.6 1 10 C-0.32 9.67 -1.64 9.34 -3 9 C-2.67 7.02 -2.34 5.04 -2 3 C-1.34 3 -0.68 3 0 3 C0 2.01 0 1.02 0 0 Z " fill="#02020A" transform="translate(422,61)"/>
<path d="M0 0 C1.62418745 -0.08090971 3.24951745 -0.13914995 4.875 -0.1875 C5.77992188 -0.22230469 6.68484375 -0.25710937 7.6171875 -0.29296875 C8.79667969 -0.14794922 8.79667969 -0.14794922 10 0 C10.66 0.99 11.32 1.98 12 3 C11.34 4.32 10.68 5.64 10 7 C9.01 7 8.02 7 7 7 C6.4375 5.0625 6.4375 5.0625 6 3 C6.33 2.67 6.66 2.34 7 2 C4.69 1.67 2.38 1.34 0 1 C0 0.67 0 0.34 0 0 Z " fill="#D0D0D0" transform="translate(234,52)"/>
<path d="M0 0 C0.33 0 0.66 0 1 0 C1.107834 2.93847653 1.18721916 5.87301151 1.25 8.8125 C1.28351563 9.64587891 1.31703125 10.47925781 1.3515625 11.33789062 C1.38832251 13.62620111 1.38495793 15.74321261 1 18 C-1.015625 20.07421875 -1.015625 20.07421875 -3 21 C-2.67 19.35 -2.34 17.7 -2 16 C-1.34 16 -0.68 16 0 16 C0 10.72 0 5.44 0 0 Z " fill="#BC161F" transform="translate(452,58)"/>
<path d="M0 0 C2.64 0 5.28 0 8 0 C7 2 7 2 5 3 C3.9805881 3.98020375 2.97753644 4.97803008 2 6 C1.34 5.67 0.68 5.34 0 5 C0 3.35 0 1.7 0 0 Z " fill="#CBCBCB" transform="translate(138,83)"/>
<path d="M0 0 C0 0.33 0 0.66 0 1 C-1.0725 1.020625 -2.145 1.04125 -3.25 1.0625 C-6.92949141 1.59081845 -6.92949141 1.59081845 -8.35546875 3.625 C-9.32906795 5.36834009 -10.17372659 7.1821985 -11 9 C-11.33 9 -11.66 9 -12 9 C-12.48 3.6 -12.48 3.6 -10.5 1.125 C-6.87739877 -0.50517055 -3.95453342 -0.19772667 0 0 Z " fill="#360102" transform="translate(367,41)"/>
<path d="M0 0 C0 0.66 0 1.32 0 2 C-1.2375 2.12375 -2.475 2.2475 -3.75 2.375 C-6.8762197 2.75746305 -9.28879237 3.30549523 -12 5 C-12 4.34 -12 3.68 -12 3 C-7.72412838 -0.56322635 -5.40143532 -1.54326723 0 0 Z " fill="#160002" transform="translate(367,39)"/>
<path d="M0 0 C3.3 0.33 6.6 0.66 10 1 C10 1.66 10 2.32 10 3 C7.03 3 4.06 3 1 3 C0.67 2.01 0.34 1.02 0 0 Z " fill="#120003" transform="translate(486,70)"/>
<path d="M0 0 C2.64 0 5.28 0 8 0 C8 0.99 8 1.98 8 3 C5.36 3 2.72 3 0 3 C0 2.01 0 1.02 0 0 Z " fill="#05030C" transform="translate(436,61)"/>
<path d="M0 0 C2.64 0 5.28 0 8 0 C8 0.66 8 1.32 8 2 C6.02 2 4.04 2 2 2 C2.33 3.32 2.66 4.64 3 6 C2.01 5.34 1.02 4.68 0 4 C0 2.68 0 1.36 0 0 Z " fill="#8D1C1D" transform="translate(479,72)"/>
<path d="M0 0 C0.99 0.495 0.99 0.495 2 1 C2.6328125 3.28515625 2.6328125 3.28515625 3.125 6.0625 C3.29257812 6.98160156 3.46015625 7.90070313 3.6328125 8.84765625 C3.75398438 9.55792969 3.87515625 10.26820312 4 11 C2.68 10.67 1.36 10.34 0 10 C0 6.7 0 3.4 0 0 Z " fill="#EE0406" transform="translate(376,65)"/>
<path d="M0 0 C0.66 0 1.32 0 2 0 C2 2.97 2 5.94 2 9 C0 5 0 5 0 3 C-2.64 3.33 -5.28 3.66 -8 4 C-7.67 3.34 -7.34 2.68 -7 2 C-4.69 2 -2.38 2 0 2 C0 1.34 0 0.68 0 0 Z " fill="#430201" transform="translate(478,57)"/>
<path d="M0 0 C-0.804375 0.61875 -1.60875 1.2375 -2.4375 1.875 C-5.03874519 3.74164041 -5.03874519 3.74164041 -6 6 C-6.66 6 -7.32 6 -8 6 C-7.67 4.02 -7.34 2.04 -7 0 C-3.98968256 -0.93423645 -3.13349732 -1.04449911 0 0 Z " fill="#ED0404" transform="translate(384,56)"/>
<path d="M0 0 C0.33 0.99 0.66 1.98 1 3 C0.01 3.66 -0.98 4.32 -2 5 C-5.1875 4.125 -5.1875 4.125 -8 3 C-7.67 2.34 -7.34 1.68 -7 1 C-4.69 1.33 -2.38 1.66 0 2 C0 1.34 0 0.68 0 0 Z " fill="#1C0000" transform="translate(353,73)"/>
<path d="M0 0 C0.66 0 1.32 0 2 0 C5.28571429 7.42857143 5.28571429 7.42857143 6 11 C5.34 10.67 4.68 10.34 4 10 C4 9.34 4 8.68 4 8 C3.34 8 2.68 8 2 8 C1.34 5.36 0.68 2.72 0 0 Z " fill="#B5151C" transform="translate(340,60)"/>
<path d="M0 0 C2.1640625 -0.29296875 2.1640625 -0.29296875 4.625 -0.1875 C5.44226563 -0.16042969 6.25953125 -0.13335937 7.1015625 -0.10546875 C8.04128906 -0.05326172 8.04128906 -0.05326172 9 0 C8.67 0.66 8.34 1.32 8 2 C6.63875 1.87625 6.63875 1.87625 5.25 1.75 C1.89958592 1.68975201 1.89958592 1.68975201 -0.375 4 C-0.91125 4.66 -1.4475 5.32 -2 6 C-2 3 -2 3 0 0 Z " fill="#AFAFAF" transform="translate(303,52)"/>
<path d="M0 0 C2.35953094 2.35953094 2.49141413 3.77895617 3 7 C3.66 7 4.32 7 5 7 C4.67 8.32 4.34 9.64 4 11 C4 10.34 4 9.68 4 9 C3.01 8.67 2.02 8.34 1 8 C0.67 5.36 0.34 2.72 0 0 Z " fill="#B51813" transform="translate(337,43)"/>
<path d="M0 0 C3.125 -0.1875 3.125 -0.1875 6 0 C5.67 0.66 5.34 1.32 5 2 C3.68 2 2.36 2 1 2 C0.34 3.65 -0.32 5.3 -1 7 C-1.625 5.1875 -1.625 5.1875 -2 3 C-1.34 2.01 -0.68 1.02 0 0 Z " fill="#B11814" transform="translate(359,43)"/>
<path d="M0 0 C2.3431213 0.25561323 4.67843403 0.59270772 7 1 C7.33 1.66 7.66 2.32 8 3 C5.36 3 2.72 3 0 3 C0 2.01 0 1.02 0 0 Z " fill="#170000" transform="translate(489,59)"/>
<path d="M0 0 C1.98 0 3.96 0 6 0 C6.33 1.98 6.66 3.96 7 6 C5 4.625 5 4.625 3 3 C3 2.34 3 1.68 3 1 C2.01 0.67 1.02 0.34 0 0 Z " fill="#180002" transform="translate(472,60)"/>
<path d="M0 0 C1.32 0.66 2.64 1.32 4 2 C3.01 3.485 3.01 3.485 2 5 C2 4.34 2 3.68 2 3 C-0.475 4.485 -0.475 4.485 -3 6 C-1.125 1.125 -1.125 1.125 0 0 Z " fill="#121212" transform="translate(133,56)"/>
<path d="M0 0 C4.75 1.875 4.75 1.875 7 3 C6.67 4.98 6.34 6.96 6 9 C5.34 8.67 4.68 8.34 4 8 C4 6.35 4 4.7 4 3 C2.68 2.34 1.36 1.68 0 1 C0 0.67 0 0.34 0 0 Z " fill="#340401" transform="translate(500,53)"/>
<path d="M0 0 C0.99 0.33 1.98 0.66 3 1 C3 2.32 3 3.64 3 5 C3.66 5 4.32 5 5 5 C4.67 5.66 4.34 6.32 4 7 C2.68 6.34 1.36 5.68 0 5 C0 3.35 0 1.7 0 0 Z " fill="#E9080B" transform="translate(411,70)"/>
</svg>
